<svg xmlns="http://www.w3.org/2000/svg" xmlns:xlink="http://www.w3.org/1999/xlink" xmlns:fi="http://pattern.flaticon.com/" x="0" y="0" width="700" height="350" viewBox="0 0 700 350"><rect x="0px" y="0px" width="100%" height="100%" opacity="0" fill="#ffffff"/><defs><g transform="matrix(0.08579378003076057 -0.03874557970985645 0.03874557970985645 0.08579378003076057 -8.839578439084093 273.88927319495025)" id="L1_0"><path d="m380.589844 204.039062 30.082031-1.90625c.050781-.003906.105469-.007812.160156-.011718 21.4375-1.808594 40.679688-13.039063 52.796875-30.820313l23.78125-34.890625c20.699219-30.375 28.71875-67.0625 22.574219-103.300781-1.207031-7.117187-4.847656-13.675781-10.246094-18.460937-5.402343-4.789063-12.347656-7.617188-19.558593-7.960938-36.726563-1.757812-72.175782 10.605469-99.847657 34.796875l-31.789062 27.792969c-16.199219 14.160156-25.042969 34.609375-24.269531 56.113281.003906.050781.003906.105469.007812.160156l1.714844 30.089844c.667968 11.730469-3.632813 23.304687-11.777344 31.734375l-248.351562 255.132812c-6.648438 6.933594-10.082032 16.445313-9.664063 26.785157.460937 11.382812 5.683594 22.5625 13.972656 29.910156 7.488281 6.636719 17.78125 10.417969 28.070313 10.417969 1.101562 0 2.203125-.042969 3.300781-.132813 10.316406-.824219 19.351563-5.371093 25.46875-12.847656l223.464844-277.085937c7.410156-9.117188 18.386719-14.773438 30.109375-15.515626zm-42.039063 5.859376-223.445312 277.0625c-3.414063 4.171874-8.664063 6.742187-14.78125 7.230468-7.277344.582032-14.738281-1.839844-19.964844-6.472656-5.226563-4.636719-8.523437-11.753906-8.816406-19.046875-.25-6.128906 1.667969-11.648437 5.363281-15.5l248.332031-255.113281c11.132813-11.519532 16.992188-27.296875 16.085938-43.289063l-1.714844-30.011719c-.582031-16.832031 6.351563-32.835937 19.035156-43.925781l31.789063-27.792969c24.671875-21.566406 56.289062-32.578124 89.015625-31.023437 3.726562.179687 7.3125 1.640625 10.105469 4.117187 2.792968 2.472657 4.671874 5.863282 5.296874 9.539063 5.476563 32.308594-1.671874 65.011719-20.125 92.089844l-23.78125 34.894531c-9.488281 13.921875-24.546874 22.722656-41.328124 24.164062l-30 1.898438c-15.984376 1.015625-30.945313 8.726562-41.066407 21.179688zm0 0" fill="#7d7d7d"/><path d="m497.820312 440.570312-166.519531-151.667968c-3.132812-2.855469-7.984375-2.628906-10.84375.503906-2.851562 3.132812-2.625 7.988281.507813 10.84375l166.476562 151.632812c3.960938 3.660157 6.207032 9.054688 6.328125 15.1875.144531 7.296876-2.71875 14.597657-7.660156 19.539063-4.9375 4.9375-12.226563 7.808594-19.539063 7.660156-6.132812-.121093-11.527343-2.367187-15.148437-6.285156l-148.382813-162.90625c-2.855468-3.136719-7.710937-3.359375-10.84375-.507813-3.132812 2.855469-3.359374 7.710938-.503906 10.84375l148.417969 162.945313c6.523437 7.054687 15.8125 11.054687 26.160156 11.257813.269531.003906.535157.007812.804688.007812 11.121093 0 22.242187-4.511719 29.886719-12.160156 7.835937-7.835938 12.378906-19.308594 12.152343-30.695313-.203125-10.347656-4.199219-19.636719-11.292969-26.199219zm0 0" fill="#7d7d7d"/><path d="m92.609375 202.585938c12.703125 11.703124 29.207031 18.375 46.472656 18.789062.054688.003906.109375.003906.160157.003906l30.140624.09375c11.75.035156 23.042969 5.023438 30.96875 13.660156l13.277344 14.574219c1.515625 1.664063 3.589844 2.507813 5.675782 2.507813 1.84375 0 3.695312-.660156 5.164062-2 3.136719-2.855469 3.363281-7.710938.507812-10.84375l-13.296874-14.59375c-10.828126-11.804688-26.226563-18.601563-42.246094-18.65625l-30.058594-.09375c-13.355469-.339844-26.125-5.453125-36.019531-14.410156l-87.347657-103.835938c-.890624-1.0625-.824218-2.601562.15625-3.582031.671876-.675781 1.460938-.773438 1.871094-.773438s1.199219.097657 1.875.773438l79.507813 79.511719c7.859375 7.859374 20.648437 7.859374 28.507812-.003907l9.34375-9.339843v-.003907l16.589844-16.589843s.003906 0 .003906-.003907c0 0 .003907-.003906.003907-.003906l9.339843-9.339844c7.859375-7.859375 7.859375-20.648437 0-28.507812l-79.507812-79.507813c-1.03125-1.03125-1.03125-2.714844 0-3.746094.980469-.980468 2.519531-1.046874 3.582031-.15625l103.835938 87.351563c8.960937 9.890625 14.074218 22.664063 14.414062 36.015625l.089844 30.0625c.054687 16.015625 6.855468 31.414062 18.675781 42.265625l14.226563 12.957031c3.136718 2.855469 7.988281 2.628906 10.84375-.503906 2.851562-3.136719 2.625-7.988281-.507813-10.84375l-14.203125-12.9375c-8.660156-7.945312-13.644531-19.242188-13.683594-30.988281l-.09375-30.140625c0-.054688 0-.109375-.003906-.164063-.414062-17.265625-7.085938-33.769531-18.789062-46.472656-.21875-.238281-.453126-.464844-.703126-.675781l-104.222656-87.671875c-7.203125-6.0625-17.65625-5.609375-24.3125 1.046875-7.019531 7.019531-7.019531 18.4375 0 25.453125l79.507813 79.511719c1.875 1.875 1.875 4.925781 0 6.800781l-3.917969 3.914062-88.613281-88.609375c-2.996094-3-7.855469-3-10.851563 0-2.996094 2.996094-2.996094 7.855469 0 10.851563l88.613282 88.613281-5.742188 5.738281-88.613281-88.609375c-2.996094-2.996094-7.855469-2.996094-10.851563 0-3 2.996094-3 7.855469 0 10.851563l88.609375 88.613281-3.914062 3.917969c-1.875 1.875-4.925781 1.875-6.800781 0l-79.511719-79.507813c-3.398438-3.398437-7.917969-5.273437-12.726563-5.273437s-9.328125 1.875-12.726562 5.273437c-6.65625 6.65625-7.105469 17.109375-1.046875 24.316406l87.675781 104.21875c.207031.25.433594.484376.671875.703126zm0 0" fill="#7d7d7d"/></g><g transform="matrix(0.11139364685134487 0.03713121376929001 -0.03713121376929001 0.11139364685134487 31.96919303069022 -25.025423606075762)" id="L1_3"><path d="M503.916,404.219h-13.619c-0.736-21.668-4.422-42.998-10.989-63.506c-7.146-22.313-17.602-43.385-31.086-62.658    c-13.301-19.015-29.309-35.926-47.579-50.262c-18.432-14.477-38.825-26.053-60.609-34.418    c-24.147-9.276-49.495-14.414-75.473-15.342l23.946-23.949c10.537-10.538,10.537-27.685-0.001-38.224    c-5.103-5.102-11.889-7.913-19.108-7.913c-4.775,0-9.36,1.23-13.395,3.538c-4.035-2.308-8.621-3.538-13.395-3.538    c-7.217,0-14.004,2.81-19.109,7.912c-5.106,5.105-7.919,11.893-7.919,19.114c0,7.221,2.813,14.008,7.918,19.112l23.949,23.949    c-16.684,0.6-33.227,2.942-49.296,7.021c-18.26,4.635-35.947,11.49-52.579,20.394c-3.934,2.102-5.422,7.006-3.32,10.941    c1.412,2.641,4.15,4.268,7.136,4.268c1.326,0,2.641-0.323,3.816-0.948c15.489-8.29,31.949-14.671,48.936-18.982    c17.086-4.338,34.779-6.572,52.587-6.684c0.416,0.066,0.84,0.11,1.275,0.11c0.447,0,0.882-0.045,1.308-0.116    c26.512,0.165,52.386,5.012,76.925,14.428c20.285,7.794,39.267,18.573,56.438,32.046c16.999,13.355,31.906,29.103,44.292,46.802    c12.557,17.936,22.301,37.564,28.951,58.336c6.061,18.924,9.481,38.585,10.209,58.569H37.891    c0.547-14.987,2.598-29.853,6.162-44.298c4.075-16.557,10.122-32.639,17.969-47.795c7.707-14.896,17.16-28.919,28.101-41.703    c10.887-12.719,23.25-24.199,36.735-34.116c3.59-2.641,4.365-7.706,1.725-11.296c-1.51-2.069-3.956-3.299-6.51-3.299    c-1.736,0-3.396,0.539-4.786,1.574c-14.476,10.639-27.745,22.96-39.441,36.617c-11.749,13.721-21.914,28.801-30.191,44.797    c-8.43,16.287-14.919,33.565-19.305,51.35c-3.867,15.706-6.085,31.875-6.64,48.168H8.084c-4.465,0-8.084,3.619-8.084,8.084    c0,22.288,18.133,40.421,40.421,40.421h431.158c22.288,0,40.421-18.133,40.421-40.421    C512,407.838,508.381,404.219,503.916,404.219z M256.004,163.724l-21.074-21.075c-2.054-2.05-3.183-4.777-3.183-7.678    s1.13-5.627,3.181-7.678c2.051-2.05,4.778-3.179,7.679-3.179c2.902,0,5.63,1.13,7.682,3.18c3.158,3.155,8.274,3.155,11.429-0.001    c2.052-2.051,4.778-3.179,7.68-3.179c2.901,0,5.627,1.128,7.676,3.177c4.234,4.235,4.234,11.125,0,15.36L256.004,163.724z     M471.579,436.555H40.421c-10.539,0-19.525-6.759-22.862-16.168H29.58c0.021,0,0.041,0.003,0.062,0.003    c0.021,0,0.041-0.003,0.062-0.003h452.592c0.021,0,0.041,0.003,0.062,0.003s0.041-0.003,0.062-0.003h12.021    C491.103,429.797,482.118,436.555,471.579,436.555z" fill="#7d7d7d"/><path d="M46.136,137.101c-26.915-26.915-0.38-63.362,0.762-64.9c2.666-3.571,1.939-8.627-1.628-11.303    c-3.572-2.678-8.639-1.955-11.318,1.617c-0.368,0.491-9.06,12.199-13.458,28.323c-6.096,22.354-1.183,42.304,14.209,57.697    c26.916,26.914,0.381,63.363-0.75,64.886c-2.679,3.572-1.955,8.639,1.617,11.318c1.454,1.09,3.156,1.618,4.844,1.617    c2.458,0,4.886-1.116,6.474-3.234c0.368-0.491,9.061-12.199,13.458-28.324C66.442,172.444,61.529,152.494,46.136,137.101z" fill="#7d7d7d"/><path d="M132.367,104.759c-6.567-6.566-8.618-13.415-6.27-20.936c1.959-6.278,6.261-10.735,6.27-10.745    c3.157-3.158,3.157-8.276,0-11.434c-3.157-3.156-8.276-3.156-11.433,0c-0.69,0.69-6.832,7.017-10.037,16.634    c-4.494,13.483-0.929,26.948,10.037,37.915c6.576,6.574,8.624,13.474,6.264,21.094c-1.945,6.28-6.181,10.776-6.328,10.931    c-3.107,3.18-3.065,8.276,0.102,11.403c1.576,1.556,3.628,2.331,5.679,2.331c2.086,0,4.172-0.803,5.753-2.404    c0.688-0.697,6.811-7.084,10.007-16.755C146.895,129.227,143.328,115.719,132.367,104.759z" fill="#7d7d7d"/><path d="M477.296,148.534c15.392-15.393,20.305-35.343,14.208-57.697c-4.397-16.124-13.09-27.833-13.458-28.323    c-2.674-3.567-7.725-4.289-11.298-1.62c-3.572,2.666-4.306,7.728-1.647,11.306c1.142,1.538,27.677,37.985,0.761,64.9    c-15.391,15.393-20.305,35.344-14.208,57.698c4.397,16.125,13.09,27.834,13.458,28.324c1.586,2.116,4.008,3.229,6.463,3.229    c1.683,0,3.381-0.524,4.834-1.61c3.573-2.666,4.307-7.728,1.648-11.306C476.915,211.897,450.38,175.449,477.296,148.534z" fill="#7d7d7d"/><path d="M384.8,137.287c-2.361-7.62-0.312-14.52,6.262-21.094c10.967-10.966,14.533-24.432,10.038-37.915    c-3.206-9.617-9.347-15.943-10.037-16.634c-3.143-3.143-8.217-3.142-11.381-0.016c-3.162,3.124-3.19,8.234-0.085,11.416    c0.043,0.044,4.344,4.501,6.304,10.779c2.346,7.521,0.296,14.37-6.27,20.936c-10.96,10.961-14.528,24.468-10.044,38.034    c3.196,9.671,9.32,16.058,10.007,16.755c1.577,1.597,3.651,2.395,5.726,2.395c2.038,0,4.079-0.768,5.655-2.306    c3.182-3.104,3.243-8.214,0.157-11.415C391.089,148.177,386.77,143.647,384.8,137.287z" fill="#7d7d7d"/></g><path d="m412.582031 40.066406c-1.089843-8.320312-5.351562-15.71875-12-20.832031l-16.5625-12.734375c-13.726562-10.558594-33.484375-7.980469-44.042969 5.75l-12.738281 16.5625c-4.683593 6.09375-6.777343 13.375-6.460937 20.511719l-36.933594 43.070312c-5.992188 6.984375-12.882812 13.03125-20.503906 18.074219-.3125.179688-.605469.378906-.886719.597656-10.53125 6.8125-22.433594 11.71875-35.324219 14.476563-18.910156 4.042969-35.820312 14.722656-47.625 30.070312l-54.902344 71.394531h-73.742187c-10.238281 0-18.570313 8.332032-18.570313 18.574219v22.367188c-9.277343 8.375-18.183593 19.503906-23.675781 29.703125-13.253906 24.632812-10.96875 50.742187 5.207031 59.449218 3.484376 1.878907 7.289063 2.769532 11.246094 2.769532 10.917969 0 23-6.804688 32.738282-18.507813l7.070312 64.359375c.421875 3.820313 3.652344 6.652344 7.414062 6.652344.269532 0 .546876-.015625.824219-.046875 4.097657-.449219 7.054688-4.136719 6.605469-8.238281l-9.449219-85.988282v-.003906l-1.773437-16.152344h127.96875c4.125 0 7.46875-3.34375 7.46875-7.46875 0-4.121093-3.34375-7.464843-7.46875-7.464843h-136.339844c-.007812 0-.015625 0-.023438 0h-9.238281c-2.007812 0-3.640625-1.632813-3.640625-3.640625v-37.789063c0-2.007812 1.632813-3.640625 3.640625-3.640625h77.402344.007813.007812 33.449219l136.214843 93.203125-17.15625 156.15625c-.398437 3.289063-3.195312 5.773438-6.511718 5.773438h-178.46875c-3.3125 0-6.113282-2.484375-6.5-5.695313l-5.738282-52.21875c-.449218-4.097656-4.132812-7.058594-8.234374-6.605468-4.101563.453124-7.058594 4.140624-6.609376 8.238281l5.746094 52.292969c1.300782 10.785156 10.472656 18.917968 21.335938 18.917968h178.464844c10.867187 0 20.039062-8.132812 21.347656-18.996094l16.308594-148.433593c2.535156 1.355469 5.316406 2.0625 8.136718 2.0625 1.855469 0 3.722656-.300781 5.546875-.910157 5.214844-1.734374 9.21875-5.71875 10.984375-10.921874l31.039063-91.347657c1.289062-3.789062.664062-7.996093-1.667969-11.25-2.328125-3.253906-6.113281-5.199219-10.113281-5.199219h-32.851563c2.261719-8.292968 3.230469-16.980468 2.8125-25.570312-.648437-13.167969 1.035156-25.925781 4.917969-37.847656.140625-.332032.257813-.675782.351563-1.027344 2.921874-8.65625 6.992187-16.867188 12.203124-24.449219l32.128907-46.738281c7.230469-1.574219 13.613281-5.597656 18.175781-11.53125l12.738281-16.5625c5.117188-6.652344 7.332031-14.898438 6.25-23.214844zm-361.71875 261.875h2.609375l1.714844 15.605469c-.660156 1.429687-1.339844 2.800781-2.027344 4.082031-9.757812 18.132813-24.832031 26.320313-32.261718 22.324219-7.421876-3.996094-8.894532-21.085937.867187-39.222656 2.863281-5.316407 6.816406-10.941407 11.277344-16.167969 2.253906 7.71875 9.382812 13.378906 17.820312 13.378906zm259.996094-110.882812-20.320313 2.652344c-.019531-1.480469-.117187-2.964844-.308593-4.453126-.753907-5.773437-2.792969-11.167968-5.914063-15.882812l29.324219-3.828125c-1.5625 6.988281-2.492187 14.179687-2.78125 21.511719zm-71.792969 21.070312c-4.804687-3.699218-7.886718-9.046875-8.671875-15.058594-.785156-6.015624.820313-11.976562 4.515625-16.78125 4.464844-5.808593 11.210938-8.855468 18.023438-8.855468 4.832031 0 9.699218 1.53125 13.816406 4.695312 4.808594 3.699219 7.886719 9.046875 8.671875 15.058594.785156 6.015625-.816406 11.976562-4.515625 16.78125-7.628906 9.925781-21.914062 11.789062-31.839844 4.160156zm4.585938-54.453125-2.65625-20.34375c7.011718-2.160156 13.722656-4.90625 20.078125-8.214843l3.832031 29.347656c-6.921875-2.320313-14.3125-2.542969-21.253906-.789063zm-52.3125 7.039063c8.84375-11.496094 21.195312-19.773438 35.089844-23.621094l3.078124 23.5625c-2.355468 1.867188-4.523437 4.042969-6.433593 6.527344-6.128907 7.96875-8.785157 17.847656-7.484375 27.816406 1.300781 9.96875 6.40625 18.835938 14.375 24.964844 1.488281 1.144531 3.039062 2.152344 4.632812 3.042968h-91.160156zm131.121094 165.285156c-.34375 1.015625-1.128907 1.414062-1.566407 1.558594-.4375.144531-1.308593.296875-2.195312-.308594l-8.566407-5.863281c-.019531-.011719-.035156-.023438-.054687-.035157l-121.902344-83.414062h164.207031zm-51.234376-102.992188c4.351563-2.417968 8.292969-5.742187 11.519532-9.933593 1.894531-2.46875 3.457031-5.117188 4.675781-7.894531l23.546875-3.078126c-.074219 7.105469-1.285156 14.210938-3.570312 20.90625zm59.757813-97.359374c-5.210937 7.585937-9.429687 15.707031-12.65625 24.222656l-38.308594 5.003906-5-38.308594c7.402344-5.304687 14.167969-11.46875 20.160157-18.453125l31.128906-36.292969c1.804687 2.613282 4.035156 4.996094 6.683594 7.035157l16.5625 12.734375c2.621093 2.015625 5.496093 3.566406 8.515624 4.65625zm63.511719-75.472657-12.738282 16.5625c-2.679687 3.488281-6.5625 5.722657-10.925781 6.292969-4.359375.570312-8.6875-.59375-12.175781-3.277344l-16.5625-12.734375c-7.203125-5.539062-8.554688-15.902343-3.019531-23.105469l12.738281-16.5625c3.242188-4.214843 8.132812-6.425781 13.078125-6.425781 3.503906 0 7.039063 1.113281 10.023437 3.410157l16.5625 12.738281c3.492188 2.679687 5.726563 6.5625 6.296876 10.925781.570312 4.363281-.59375 8.6875-3.277344 12.175781zm0 0" transform="matrix(0.11495582783061409 -0.013264133595105834 0.013264133595105834 0.11495582783061409 184.7695851075668 254.2905443057059)" id="L1_5" fill="#7d7d7d"/><g transform="matrix(0.14573539975636554 0.042310279610141596 -0.042310279610141596 0.14573539975636554 289.03259019668405 188.6327684293721)" id="L1_6"><path d="M261.39,168.768c19.439-20.182,28.627-44.058,25.867-67.229c-1.263-10.604-7.755-34.217-15.79-57.423    c-4.032-11.646-7.924-21.604-11.254-28.793C254.974,4.01,251.488,0,246.899,0H119.287c-4.591,0-8.074,4.01-13.314,15.323    c-3.33,7.19-7.222,17.146-11.254,28.793c-8.034,23.206-14.527,46.818-15.789,57.423c-5.785,48.574,41.113,93.064,88.259,102.289    c0.609,8.4,1.16,31.939,0.841,59.988c-0.514,45.139-2.784,61.541-4.021,64.074c-1.849,3.256-12.858,7.672-29.624,9.439    l-0.467,0.049c-8.963,0.943-25.647,2.703-25.647,16.01c0,6.34,2.987,9.402,5.492,10.855c2.938,1.703,6.455,1.938,9.819,1.938    c0.872,0,1.781-0.016,2.719-0.033c0.932-0.018,1.894-0.035,2.878-0.035H237.01c0.983,0,1.945,0.018,2.877,0.035    c0.938,0.018,1.848,0.033,2.72,0.033c3.787,0,15.313,0,15.313-12.793c0-13.307-16.686-15.066-25.648-16.01l-0.469-0.049    c-16.766-1.77-27.774-6.184-29.597-9.393c-1.269-2.613-3.452-19.045-3.602-64.057c-0.095-28.908,0.736-52.332,1.501-60.404    C222.271,198.639,244.937,185.848,261.39,168.768z M187.601,262.764c0.101,41.135,1.785,64.873,5.012,70.557    c5.743,10.121,26.296,13.709,38.033,14.947l0.472,0.049c4.729,0.5,15.802,1.666,15.802,5.072c0,0.783-0.09,1.211-0.146,1.404    c-0.375,0.152-1.402,0.389-4.167,0.389c-0.807,0-1.648-0.016-2.517-0.033c-0.996-0.018-2.026-0.037-3.08-0.037h-53.536h-54.295    c-1.054,0-2.084,0.02-3.081,0.037c-0.868,0.018-1.709,0.033-2.516,0.033c-2.763,0-3.79-0.236-4.165-0.389    c-0.058-0.193-0.146-0.621-0.146-1.406c0-3.406,11.072-4.572,15.801-5.07l0.469-0.049c11.738-1.238,32.289-4.826,38.035-14.949    c1.193-2.102,4.823-8.498,5.47-70.788c0.152-14.737,0.076-30.267-0.209-42.606c-0.472-20.396-1.172-21.842-1.789-23.117    c-0.825-1.701-2.406-2.883-4.229-3.162c-21.24-3.258-43.567-15.155-59.725-31.825c-17.38-17.933-25.634-38.879-23.24-58.981    c2.442-20.509,23.675-83.082,30.964-91.84h124.557c7.289,8.759,28.521,71.333,30.964,91.84    c5.067,42.551-39.031,82.894-81.847,90.539c-1.834,0.328-3.356,1.52-4.179,3.268C187.488,202.657,187.595,260.312,187.601,262.764    z" fill="#7d7d7d"/><path d="M244.876,152.387c7.387-8.986,13.278-16.938,14.321-27.506c0.086-0.874,0.229-4-2.657-4    c-36.54,0-110.438,0.014-146.979,0.014c-3.159,0-2.665,3.056-2.574,3.986c1.056,10.84,7.114,19.048,14.765,28.241    c12.812,15.393,29.63,25.398,48.34,26.765c3.171,0.232,8.396,0.375,13.635,0.375c4.988,0,9.529-0.133,12.146-0.356    C214.984,178.276,232.051,167.988,244.876,152.387z" fill="#7d7d7d"/></g><g transform="matrix(0.10549920212406562 -0.03014262831940404 0.03014262831940404 0.10549920212406562 258.7621885054458 117.11502031596683)" id="L1_8"><path d="m240.449219 340.105469c-4.140625 0-7.5 3.359375-7.5 7.5v12.449219c0 4.144531 3.359375 7.5 7.5 7.5 4.144531 0 7.5-3.355469 7.5-7.5v-12.449219c0-4.140625-3.355469-7.5-7.5-7.5zm0 0" fill="#7d7d7d"/><path d="m145.628906 340.105469c-4.140625 0-7.5 3.359375-7.5 7.5v12.449219c0 4.144531 3.359375 7.5 7.5 7.5 4.144532 0 7.5-3.355469 7.5-7.5v-12.449219c.003906-4.140625-3.355468-7.5-7.5-7.5zm0 0" fill="#7d7d7d"/><path d="m208.550781 350.414062c-1.269531-.835937-6.882812-2.996093-10.386719 2.148438-1.683593 2.46875-4.128906 2.765625-5.125 2.765625-.992187 0-3.484374-.269531-5.121093-2.765625-2.277344-3.460938-6.925781-4.425781-10.386719-2.148438-3.464844 2.273438-4.425781 6.921876-2.152344 10.382813 3.921875 5.96875 10.523438 9.53125 17.660156 9.53125 7.140626 0 13.742188-3.5625 17.660157-9.53125 2.277343-3.460937 1.3125-8.109375-2.148438-10.382813zm0 0" fill="#7d7d7d"/><path d="m158.550781 271.972656c3.65625 1.9375 8.199219.546875 10.140625-3.113281s.546875-8.199219-3.113281-10.140625c-5.539063-2.933594-8.84375-6.597656-8.84375-9.796875 0-3.203125 3.304687-6.863281 8.84375-9.800781 7.105469-3.769532 17.117187-5.929688 27.460937-5.929688 10.347657 0 20.355469 2.160156 27.464844 5.929688 5.535156 2.9375 8.84375 6.597656 8.84375 9.800781 0 3.199219-3.308594 6.863281-8.84375 9.796875-7.109375 3.769531-17.117187 5.933594-27.464844 5.933594-4.140624 0-7.5 3.355468-7.5 7.5 0 4.140625 3.359376 7.5 7.5 7.5 29.25 0 51.308594-13.214844 51.308594-30.730469 0-17.519531-22.058594-30.730469-51.308594-30.730469s-51.308593 13.210938-51.308593 30.730469c0 9.113281 5.972656 17.296875 16.820312 23.050781zm0 0" fill="#7d7d7d"/><path d="m482.367188 158.808594c-34.902344-23.71875-75.65625-36.257813-117.859376-36.257813-10.78125 0-21.464843.824219-31.980468 2.4375l43.457031-33.503906c11.109375-8.5625 13.40625-24.199219 5.234375-35.59375-8.175781-11.398437-23.722656-14.234375-35.398438-6.460937l-25.609374 17.0625 17.679687-25.1875c8.058594-11.476563 5.601563-27.089844-5.59375-35.539063-11.191406-8.453125-26.882813-6.535156-35.714844 4.359375l-127.0625 156.742188-32.871093 21.894531c-21.507813 6.226562-40.503907 23.117187-46.3125 30.851562l-72.707032 48.429688c-9.003906 5.996093-15.03125 15.160156-16.972656 25.800781-1.941406 10.644531.460938 21.34375 6.765625 30.132812 6.304687 8.792969 16.359375 16.128907 32.007813 16.492188-.3125 12.53125 5.359374 24.574219 15.726562 32.417969 15.371094 11.632812 30.390625 7.574219 33.652344 6.734375 5.867187 8.566406 14.570312 16.351562 25.820312 22.933594 21.0625 12.320312 48.910156 19.105468 78.410156 19.105468s57.347657-6.785156 78.414063-19.105468c14.058594-8.222657 24.136719-18.328126 29.675781-29.492188 4.09375 1.453125 20.730469 7.117188 35.433594-5.136719 1.546875-1.289062 3.726562-1.1875 5.351562 0 6.597657 4.816407 14.410157 7.363281 22.59375 7.363281 8.183594 0 15.996094-2.546874 22.589844-7.363281 1.628906-1.1875 3.726563-1.183593 5.355469 0 6.59375 4.816407 14.40625 7.363281 22.59375 7.363281 15.125 0 28.878906-8.925781 35.046875-22.742187.714844-1.605469 2.226562-2.644531 3.941406-2.707031 10.941406-.410156 21.207032-5.480469 28.167969-13.917969 6.902344-8.367187 9.945313-19.324219 8.34375-30.0625-.25-1.683594.457031-3.335937 1.890625-4.417969 9.597656-7.257812 15.15625-18.3125 15.242188-30.328125.050781-7.25-2.027344-14.308593-5.933594-20.429687 19.15625-30.667969 10.78125-71.378906-19.378906-91.875zm-115.28125-21.234375c6.621093 14.929687 9.324218 31.386719 7.804687 47.886719-.535156 5.804687-5.691406 10.085937-11.496094 9.558593-.105469-.011719-10.351562-1.414062-9.550781-11.597656 1.261719-15.976563-2.308594-31.46875-10.109375-44.765625 6.867187-.730469 22.492187-1.09375 23.351563-1.082031zm-39.675782 3.523437c8.59375 11.695313 12.660156 26.136719 11.480469 41.148438-1.382813 17.515625 9.207031 27.816406 25.492187 27.816406 13.050782 0 24.226563-9.980469 25.445313-23.226562 1.523437-16.515626-.628906-33.007813-6.210937-48.347657 11.015624 1.074219 21.867187 3.082031 32.460937 5.988281 4.832031 12.753907 5.183594 26.960938.921875 40.398438-5.3125 16.746094 6.214844 29.203125 16.25 32.226562 18.109375 5.464844 28.769531-5.496093 32.324219-16.214843.824219-2.480469 1.566406-5.007813 2.210937-7.515625 1.027344-4.011719-1.390625-8.101563-5.402344-9.128906-4.015624-1.027344-8.101562 1.390624-9.128906 5.402343-.558594 2.175781-1.203125 4.367188-1.914062 6.519531-1.835938 5.53125-7.835938 8.539063-13.367188 6.703126-.097656-.03125-9.761718-3.722657-6.671875-13.457032 4.101563-12.933594 4.734375-26.472656 2.003907-39.324218 14.222656 5.378906 27.851562 12.441406 40.632812 21.125 24.050781 16.347656 30.320312 49.210937 13.972656 73.265624-9.847656 14.492188-42.511718 34.148438-73.367187 13.90625-30.933594-20.289062-70.25-20.261718-100.167969.070313-2.644531 1.796875-5.417969 3.332031-8.296875 4.609375v-14.140625c0-8.621094-2.46875-16.945313-7.191406-24.683594 13.488281-2.933593 22.285156-16.140625 19.683593-29.773437-3.054687-16.019532-9.535156-31.066406-18.914062-44.136719-.003906 0 19.683594-7.667969 27.753906-9.230469zm-43.164062 13.746094c9.859375 12.234375 16.605468 26.792969 19.589844 42.433594 1.089843 5.722656-2.679688 11.269531-8.402344 12.363281-.105469.019531-10.339844 1.507813-12.386719-8.5-2.773437-13.566406-9.121094-26.101563-18.167969-36.167969 6.285156-3.75 12.753906-7.128906 19.367188-10.128906zm-32.074219 18.5c6.148437 6.328125 10.894531 14.042969 13.875 22.511719-7.789063-4.003907-16.34375-7.320313-25.476563-9.875 3.132813-4.800781 7.039063-9.066407 11.601563-12.636719zm56.0625-153.773438c3.714844-4.582031 10.316406-5.390624 15.023437-1.835937 4.710938 3.554687 5.746094 10.121094 2.355469 14.949219l-39.828125 56.738281-74.289062 49.484375zm45.902344 42.34375c4.910156-3.269531 11.453125-2.078124 14.890625 2.71875 3.4375 4.792969 2.472656 11.371094-2.203125 14.972657l-70.402344 54.277343c-17.492187 6.007813-34.214844 14.351563-49.773437 24.921876-9.015626 6.128906-16.324219 14.222656-21.449219 23.675781-20.039063-3.492188-43.480469-2.527344-49.015625-2.03125zm-231.9375 149.832032c18.804687-10.996094 43.960937-17.050782 70.839843-17.050782 26.878907 0 52.035157 6.054688 70.839844 17.050782 17.539063 10.257812 27.195313 23.460937 27.195313 37.171875 0 13.714843-9.660157 26.917969-27.195313 37.175781-18.804687 10.996094-43.960937 17.050781-70.839844 17.050781-26.878906 0-52.035156-6.054687-70.839843-17.050781-17.535157-10.257812-27.195313-23.460938-27.195313-37.175781 0-13.710938 9.660156-26.914063 27.195313-37.171875zm-102.589844 103.488281c-10.433594-16.023437.75-30.988281 6.335937-34.707031l54.296876-36.171875c-.152344 1.511719-.238282 56.363281-.238282 56.363281l-25.484375 19.648438c-5.316406 4.097656-24.46875 10.890624-34.910156-5.132813zm35.148437 22.203125c3.144532-1.316406 25.246094-17.777344 25.246094-17.777344v32.773438c0 4.507812.679688 8.933594 2 13.238281-22.332031 1.230469-29.296875-13.582031-27.246094-28.234375zm209.121094 52.167969c-18.804687 10.996093-43.960937 17.054687-70.839844 17.054687-26.878906 0-52.035156-6.058594-70.839843-17.054687-17.535157-10.257813-27.195313-23.460938-27.195313-37.171875v-68.675782c5.253906 5.578126 11.824219 10.71875 19.625 15.28125 21.0625 12.320313 48.910156 19.105469 78.410156 19.105469s57.347657-6.785156 78.414063-19.105469c7.796875-4.558593 14.367187-9.699218 19.621094-15.28125v68.675782c0 13.710937-9.65625 26.914062-27.195313 37.171875zm219.511719-100.128907c-5.546875 4.6875-8.734375 11.5-7.679687 18.59375.972656 6.539063-.878907 13.210938-5.078126 18.304688-4.238281 5.136719-10.492187 8.226562-17.15625 8.472656-7.472656.28125-14.015624 4.71875-17.082031 11.585938-3.753906 8.417968-12.136719 13.855468-21.347656 13.855468-4.984375 0-9.738281-1.546874-13.746094-4.476562-6.890625-5.03125-16.152343-5.03125-23.046875 0-4.011718 2.929688-8.765625 4.476562-13.746094 4.476562-4.984374 0-9.738281-1.546874-13.746093-4.476562-6.894531-5.03125-15.988281-4.800781-23.046875 0-9.625 6.546875-19.449219 3.953125-22.09375 2.941406.296875-2.085937.453125-79.621094.453125-79.621094 5.90625-1.960937 11.511719-4.730468 16.730469-8.273437 24.882812-16.914063 57.664062-16.886719 83.507812.066406 12.800781 8.398438 25.316406 11.175781 36.273438 11.175781 28.742187 0 41.773437-12.882812 48.65625-19.054687.957031 2.542969 6.167968 14.578125-7.851563 26.429687zm0 0" fill="#7d7d7d"/></g><g transform="matrix(0.08363818181854207 0.08363818181854206 -0.08363818181854206 0.08363818181854207 337.0805937320541 24.25905118800692)" id="L1_9"><path d="m511.929 253.694c-.657-20.244-8.961-41.218-21.764-56.073 11.583-13.434 16.501-32.482 12.783-53.975-4.868-28.141-23.466-54.561-51.025-72.484-22.595-14.696-62.209-30.666-122.61-23.292-36.731 4.484-107.321 16.704-167.388 48.161-29.28 15.333-73.035 44.37-108.029 79.881-41.31 41.919-59.437 82.203-52.423 116.498 3.961 19.371 10.511 35.831 19.578 49.274-.368 30.415 10.693 59.555 29.853 78.363 17.655 17.33 41.857 26.056 70.204 25.318 6.004 3.78 20.468 11.814 41.496 16.664 9.662 2.228 21.51 3.934 35.144 3.934 21.384 0 47.154-4.195 75.754-17.153 6.9-.121 27.399-1.214 50.442-9.398 34.979-12.426 60.207-35.679 73.369-67.492 7.997-.102 21.312-1.09 35.638-5.623 29.814-9.436 50.125-29.656 58.889-58.569 13.826-14.622 20.764-33.246 20.089-54.034zm-70.911-165.767c22.91 14.9 38.299 36.452 42.222 59.128 3.46 20.002-2.426 43.53-29.325 49.576-5.865 1.318-11.77 1.818-18.035 2.001 1.955-14.417-1.553-30.014-16.215-39.605-5.142-3.362-6.175-5.648-8.233-10.202-2.67-5.907-6.328-13.996-18.899-24.199-5.689-4.618-11.982-8.458-18.067-12.171-6.56-4.003-12.755-7.784-16.72-11.7-5.758-5.689-8.712-12.297-11.839-19.293-2.125-4.752-4.368-9.764-7.555-14.444 50.66-4.783 83.67 8.554 102.666 20.909zm-96.305 126.69c-.981-12.364-5.344-27.661-19.465-36.898-4.886-3.196-7.148-6.049-10.013-9.661-5.158-6.502-11.003-13.872-29.497-21.597-5.871-2.452-14.386-4.474-23.401-6.613-10.042-2.384-26.849-6.373-30.313-9.796-4.938-4.878-8.845-10.332-12.625-15.605-3.987-5.565-8.221-11.466-13.654-16.242 39.305-15.206 79.583-23.472 106.454-27.73 8.032 3.324 10.94 9.067 15.447 19.149 3.569 7.982 7.613 17.03 16.042 25.357 5.618 5.551 13.111 10.123 20.357 14.545 5.522 3.37 11.233 6.854 15.882 10.628 8.899 7.222 11.026 11.928 13.278 16.909 2.575 5.694 5.492 12.148 15.51 18.7 8.707 5.696 8.328 16.08 6.862 22.967-19.686.15-42.457 1.768-70.864 15.887zm-276.572-24.667c5.409-5.489 11.041-10.813 16.796-15.949 6.505 1.311 14.329 6.239 23.798 14.987 1.923 1.776 4.356 2.654 6.783 2.654 2.692 0 5.377-1.081 7.348-3.214 3.748-4.057 3.497-10.384-.56-14.132-7.132-6.588-13.751-11.509-20.066-14.905 24.726-19.787 50.018-35.722 68.963-45.644 3.462-1.813 6.971-3.557 10.512-5.239 8.966.762 13.473 6.484 21.426 17.585 4.067 5.678 8.678 12.111 14.826 18.187 6.931 6.848 20.239 10.396 39.75 15.026 7.839 1.861 15.945 3.785 20.312 5.609 13.736 5.737 17.351 10.294 21.536 15.57 3.346 4.219 7.139 9.001 14.734 13.969 11.044 7.225 11.019 24.127 10.393 31.695-10.19 6.655-21.046 14.914-32.663 25.182-6.587 5.822-13.372 11.927-20.555 18.391-4.855 4.368-9.84 8.854-14.914 13.383-1.184-11.123-5.574-23.246-17.514-31.057-4.693-3.07-6.483-5.739-8.96-9.435-4.307-6.422-9.666-14.415-28.298-22.197-2.589-1.082-5.72-2.08-9.572-3.051-5.359-1.344-10.791 1.898-12.14 7.254-1.35 5.355 1.898 10.791 7.253 12.141 2.878.725 5.084 1.415 6.749 2.11 13.083 5.464 15.869 9.62 19.397 14.882 2.909 4.339 6.53 9.738 14.623 15.032 11.389 7.45 9.056 25.742 7.72 32.566-20.309 17.524-41.14 34.274-60.142 46.081-.004-18.038-6.155-34.523-23.491-39.168-1.916-.514-3.457-1.971-6.761-5.217-5.399-5.305-13.559-13.321-30.844-20.541-6.657-2.78-14.071-3.949-21.241-5.079-7.363-1.161-15.709-2.477-18.599-5.331-4.777-4.72-8.877-10.165-12.842-15.432-7.169-9.522-15.053-19.984-27.093-24.944 9.29-15.498 21.666-29.927 33.336-41.769zm-42.35 59.771c7.243 2.301 12.521 8.868 20.129 18.974 4.193 5.569 8.945 11.882 14.764 17.63 7.47 7.381 18.69 9.149 29.541 10.859 6.002.946 12.208 1.924 16.646 3.778 13.728 5.733 19.72 11.622 24.536 16.353 4.188 4.115 8.52 8.371 15.602 10.269 9.7 2.599 9.209 20.596 7.703 31.033-6.522 2.793-12.654 4.654-18.266 5.347-65.583 8.101-103.325-16.618-115.379-75.562-2.598-12.705-.372-25.852 4.724-38.681zm450.112 45.698c-1.248 1.232-2.149 2.771-2.614 4.462-6.478 23.549-21.885 39.417-45.793 47.161-18.777 6.081-36.01 4.765-36.159 4.752-4.563-.405-8.809 2.361-10.309 6.688-10.271 29.64-31.53 50.455-63.187 61.869-24.391 8.795-46.116 8.461-46.31 8.469-1.538-.035-3.06.282-4.453.931-33.823 15.739-67.143 20.114-99.033 13.005-23.888-5.326-38.048-15.474-38.159-15.554-1.861-1.374-4.146-2.078-6.451-1.939-24.379 1.257-44.071-5.303-58.523-19.489-10.458-10.266-17.893-24.574-21.469-40.582 2.407 1.772 4.9 3.437 7.489 4.98 17.049 10.161 38.079 15.269 62.738 15.269 8.028 0 16.441-.541 25.227-1.626 41.353-5.106 96.924-55.107 145.954-99.223 7.149-6.433 13.902-12.508 20.423-18.271 54.071-47.791 88.057-47.668 118.06-47.595 11.916.044 23.173.071 34.966-2.579 5.914-1.33 11.336-3.371 16.23-6.016 10.091 11.399 16.893 28.327 17.409 44.214.362 11.153-2.126 27.333-16.036 41.074z" fill="#7d7d7d"/><path d="m413.261 248.048h-.007c-5.523 0-9.997 4.478-9.997 10s4.481 10 10.004 10 10-4.478 10-10-4.477-10-10-10z" fill="#7d7d7d"/><path d="m344.253 305.048h-.007c-5.523 0-9.997 4.478-9.997 10s4.481 10 10.004 10 10-4.478 10-10-4.477-10-10-10z" fill="#7d7d7d"/><path d="m252.753 366.548h-.007c-5.523 0-9.997 4.478-9.997 10s4.481 10 10.004 10 10-4.478 10-10-4.477-10-10-10z" fill="#7d7d7d"/><path d="m146.669 224.121c5.523 0 10-4.478 10-10s-4.477-10-10-10h-.007c-5.523 0-9.996 4.478-9.996 10s4.48 10 10.003 10z" fill="#7d7d7d"/></g><g transform="matrix(-0.08660567530141307 -0.036807411478344314 -0.036807411478344314 0.08660567530141307 97.91908236227377 198.30102064591102)" id="L1_11"><path d="M128,224c0-5.896-4.771-10.667-10.667-10.667c-5.896,0-10.667,4.771-10.667,10.667c0,28.01,30.896,66.469,34.417,70.771     c2.115,2.563,5.177,3.896,8.26,3.896c2.375,0,4.771-0.792,6.76-2.417c4.552-3.74,5.208-10.458,1.479-15.021     C146.146,267.292,128,239.437,128,224z" fill="#7d7d7d"/><path d="M352,213.333c-5.896,0-10.667,4.771-10.667,10.667c0,15.385-18.146,43.271-29.583,57.24     c-3.729,4.552-3.063,11.271,1.49,15.01c1.979,1.625,4.375,2.417,6.76,2.417c3.083,0,6.135-1.333,8.25-3.896     c3.521-4.302,34.417-42.76,34.417-70.771C362.667,218.104,357.896,213.333,352,213.333z" fill="#7d7d7d"/><path d="M234.667,213.333c-5.896,0-10.667,4.771-10.667,10.667v64c0,5.896,4.771,10.667,10.667,10.667     s10.667-4.771,10.667-10.667v-64C245.333,218.104,240.562,213.333,234.667,213.333z" fill="#7d7d7d"/><path d="M352,42.667c-6.464,0-13.219,0.855-20.234,2.158C308.273,17.439,273.496,0,234.667,0s-73.607,17.439-97.099,44.824     c-7.016-1.302-13.771-2.158-20.234-2.158C52.635,42.667,0,95.302,0,160c0,44.333,25,84.635,64.25,104.562L64.042,425.76     c-0.01,11.635,4.51,22.573,12.729,30.802c8.229,8.24,19.156,12.771,30.792,12.771h254.25c24,0,43.521-19.521,43.521-43.521     V264.406c39.104-19.979,64-60.219,64-104.406C469.333,95.302,416.698,42.667,352,42.667z M384,425.813     c0,12.229-9.958,22.188-22.188,22.188h-254.25c-5.927,0-11.5-2.313-15.698-6.51c-4.188-4.198-6.5-9.771-6.49-15.708L85.43,384     H384V425.813z M390.604,247.802c-0.563,0.229-1.094,0.5-1.594,0.823c-1.344,0.833-2.448,1.938-3.271,3.208     c-0.833,1.26-1.396,2.719-1.625,4.281c-0.094,0.594-0.125,1.188-0.115,1.792v104.76H85.457l0.137-104.615     c0.01-0.583-0.021-1.177-0.104-1.75c-0.229-1.615-0.823-3.115-1.688-4.417c-0.813-1.219-1.875-2.281-3.167-3.094     c-0.531-0.333-1.094-0.625-1.677-0.865C43.948,232.615,21.333,198.135,21.333,160c0-52.938,43.063-96,96-96     c2.069,0,4.253,0.25,6.396,0.419c-10.792,18.756-17.063,40.43-17.063,63.581c0,5.896,4.771,10.667,10.667,10.667     c5.896,0,10.667-4.771,10.667-10.667c0-58.813,47.854-106.667,106.667-106.667S341.333,69.187,341.333,128     c0,5.896,4.771,10.667,10.667,10.667c5.896,0,10.667-4.771,10.667-10.667c0-23.151-6.271-44.824-17.063-63.581     C347.747,64.25,349.931,64,352,64c52.938,0,96,43.063,96,96C448,198,425.479,232.437,390.604,247.802z" fill="#7d7d7d"/></g><g transform="matrix(2.1113719940185547 0 0 2.1113719940185547 216.33903242114081 168.6635361177723)" id="L1_13"><path d="m15.5 24h-7c-.827 0-1.5-.673-1.5-1.5v-12c0-.827.673-1.5 1.5-1.5h7c.827 0 1.5.673 1.5 1.5v12c0 .827-.673 1.5-1.5 1.5zm-7-14c-.276 0-.5.224-.5.5v12c0 .276.224.5.5.5h7c.276 0 .5-.224.5-.5v-12c0-.276-.224-.5-.5-.5z" fill="#7d7d7d"/><path d="m12 8c-1.654 0-3-1.346-3-3 0-1.513 2.343-4.479 2.61-4.812.189-.237.591-.237.78 0 .267.333 2.61 3.299 2.61 4.812 0 1.654-1.346 3-3 3zm0-6.683c-.896 1.197-2 2.922-2 3.683 0 1.103.897 2 2 2s2-.897 2-2c0-.762-1.104-2.487-2-3.683z" fill="#7d7d7d"/><path d="m12 10c-.276 0-.5-.224-.5-.5v-2c0-.276.224-.5.5-.5s.5.224.5.5v2c0 .276-.224.5-.5.5z" fill="#7d7d7d"/></g><path d="M277.8,134.4V6.8h-0.4c0-4-3.2-6.8-6.8-6.8h-44.4c-4,0-6.8,3.2-6.8,6.8v128c-44,15.2-47.2,63.2-46,72.8V396v0.4v0.4v58.4    c0,23.2,18.8,42,42,42h66.4c23.2,0,42-18.8,42-42v-248C325,197.6,321.8,149.6,277.8,134.4z M233,13.6h30.4v18.8H233V13.6z     M281.4,483.2H215c-10.4,0-19.6-6-24.4-14.4h115.2C301,477.2,291.8,483.2,281.4,483.2z M309.4,454.8H187v-51.6h122.4V454.8z     M309.4,389.2H187V251.6h122.4V389.2z M309.4,205.6c0,0.4,0,0.8,0,1.6V238H187v-30.8c0-0.4,0-0.8,0-1.2c0-0.4-1.6-48,40.8-59.2    c3.2-0.8,5.2-3.6,5.2-6.8V46.4h30.4V140c0,3.2,2,6,5.2,6.8C311,158,309.8,205.2,309.4,205.6z" transform="matrix(0.10011591277962022 0.0621409099455969 -0.0621409099455969 0.10011591277962022 6.553195570486675 116.66089758911635)" id="L1_16" fill="#7d7d7d"/><g transform="matrix(0.08341145049012091 -0.036144960245448596 0.036144960245448596 0.08341145049012091 54.73227662659919 97.58325982889684)" id="L1_18"><path d="m220.105469 353.464844c-25.308594 0-45.898438 20.589844-45.898438 45.894531 0 25.308594 20.589844 45.898437 45.898438 45.898437 25.304687 0 45.894531-20.589843 45.894531-45.898437 0-25.304687-20.589844-45.894531-45.894531-45.894531zm0 71.792968c-14.28125 0-25.898438-11.617187-25.898438-25.898437 0-14.277344 11.617188-25.894531 25.898438-25.894531 14.277343 0 25.894531 11.617187 25.894531 25.894531 0 14.28125-11.617188 25.898437-25.894531 25.898437zm0 0" fill="#7d7d7d"/><path d="m401.160156 318.785156c-19.242187 0-34.898437 15.652344-34.898437 34.894532 0 19.242187 15.65625 34.894531 34.898437 34.894531 19.242188 0 34.894532-15.652344 34.894532-34.894531 0-19.242188-15.652344-34.894532-34.894532-34.894532zm0 49.792969c-8.214844 0-14.898437-6.683594-14.898437-14.898437 0-8.214844 6.683593-14.894532 14.898437-14.894532 8.210938 0 14.894532 6.683594 14.894532 14.894532 0 8.214843-6.683594 14.898437-14.894532 14.898437zm0 0" fill="#7d7d7d"/><path d="m109.511719 266.921875c-18.0625 0-32.753907 14.695313-32.753907 32.757813 0 18.058593 14.691407 32.753906 32.753907 32.753906 18.058593 0 32.753906-14.695313 32.753906-32.753906 0-18.0625-14.695313-32.757813-32.753906-32.757813zm0 45.511719c-7.035157 0-12.753907-5.722656-12.753907-12.753906s5.71875-12.753907 12.753907-12.753907c7.035156 0 12.753906 5.722657 12.753906 12.753907s-5.722656 12.753906-12.753906 12.753906zm0 0" fill="#7d7d7d"/><path d="m383.5 125.257812c18.289062 0 33.167969-14.878906 33.167969-33.167968 0-18.289063-14.878907-33.167969-33.167969-33.167969s-33.167969 14.878906-33.167969 33.167969c0 18.289062 14.878907 33.167968 33.167969 33.167968zm0-46.335937c7.261719 0 13.167969 5.90625 13.167969 13.167969 0 7.261718-5.90625 13.167968-13.167969 13.167968s-13.167969-5.90625-13.167969-13.167968c0-7.261719 5.90625-13.167969 13.167969-13.167969zm0 0" fill="#7d7d7d"/><path d="m511.433594 212.53125-1.050782-7.449219c-9.625-68.335937-38.460937-132.023437-83.398437-184.1875-18.851563-21.882812-50.644531-27.285156-75.59375-12.839843l-135.847656 78.648437c-3.558594 2.0625-5.496094 6.089844-4.878907 10.15625 1.253907 8.246094-1.398437 16.347656-7.28125 22.230469-9.332031 9.332031-24.140624 10.167968-34.4375 1.945312-3.21875-2.570312-7.6875-2.90625-11.25-.839844l-128.753906 74.542969c-8.507812 4.921875-15.472656 11.871094-20.441406 20.023438-1.5625 1.464843-2.648438 3.421875-3.015625 5.628906-3.546875 7.574219-5.484375 15.9375-5.484375 24.539063v118.535156c0 5.523437 4.476562 10 10 10 14.277344 0 25.894531 11.617187 25.894531 25.894531 0 14.28125-11.617187 25.898437-25.894531 25.898437-5.523438 0-10 4.476563-10 10v6c0 31.980469 26.019531 58 58 58h289.605469c5.523437 0 10-4.476562 10-10 0-14.28125 11.617187-25.898437 25.894531-25.898437s25.894531 11.617187 25.894531 25.898437c0 5.523438 4.476563 10 10 10h34.605469c31.980469 0 58-26.019531 58-58v-220.636718c0-2.699219-.191406-5.417969-.566406-8.089844zm-57.433594 266.726562h-25.699219c-4.578125-20.515624-22.929687-35.898437-44.800781-35.898437s-40.222656 15.382813-44.800781 35.898437h-280.699219c-19.984375 0-36.417969-15.507812-37.890625-35.125 20.457031-4.617187 35.789063-22.9375 35.789063-44.773437 0-21.871094-15.382813-40.222656-35.898438-44.796875v-109.632812c0-4.453126.804688-8.800782 2.28125-12.878907h68.054688c5.519531 0 10-4.476562 10-10 0-5.523437-4.480469-10-10-10h-51.382813c0-.003906.003906-.003906.007813-.003906l123.34375-71.410156c17.695312 10.15625 40.367187 7.445312 55.21875-7.40625 8.597656-8.597657 13.382812-20.3125 13.433593-32.339844l130.453125-75.527344c16.632813-9.628906 37.839844-6.019531 50.421875 8.585938 42.429688 49.25 69.660157 109.390625 78.746094 173.917969l.589844 4.183593h-220.78125c4.128906-11.640625 15.242187-20 28.28125-20 5.523437 0 10-4.476562 10-10 0-5.523437-4.476563-10-10-10-24.148438 0-44.347657 17.203125-48.996094 40h-72.671875c-5.523438 0-10 4.476563-10 10 0 5.523438 4.476562 10 10 10h72.671875c4.648437 22.792969 24.847656 40 48.996094 40 24.144531 0 44.347656-17.207031 48.992187-40h144.339844v209.207031c0 20.953126-17.046875 38-38 38zm-127.054688-247.207031c-4.128906 11.640625-15.242187 20-28.28125 20-13.035156 0-24.148437-8.359375-28.277343-20zm0 0" fill="#7d7d7d"/><path d="m135 212.050781c-2.628906 0-5.210938 1.070313-7.070312 2.929688-1.859376 1.859375-2.929688 4.441406-2.929688 7.070312 0 2.628907 1.070312 5.210938 2.929688 7.070313 1.859374 1.859375 4.441406 2.929687 7.070312 2.929687s5.210938-1.070312 7.070312-2.929687c1.859376-1.859375 2.929688-4.441406 2.929688-7.070313 0-2.628906-1.070312-5.210937-2.929688-7.070312-1.859374-1.859375-4.441406-2.929688-7.070312-2.929688zm0 0" fill="#7d7d7d"/></g><path d="m481.854 290.398c-3.161-2.681-7.892-2.29-10.571.868-2.679 3.159-2.291 7.893.869 10.571 16.233 13.768 24.826 29.177 24.848 44.562.015 10.328-3.688 19.059-11.321 26.691-12.763 12.764-36.512 22.271-70.587 28.26-30.589 5.375-68.898 7.984-117.152 7.888-74.499-.101-127.053-6.548-159.935-19.656 12.666-9.012 26.217-19.829 40.749-32.523 4.399 5.263 10.706 8.741 17.776 9.455 14.684 1.483 27.898-9.388 29.315-24.158.947-9.877.968-19.823.075-29.623 13.165-13.134 25.04-25.532 35.714-37.292 6.012 10.29 10.152 21.135 12.322 32.354 1.853 9.561 2.31 19.459 1.357 29.421-1.408 14.76 9.373 27.974 24.091 29.461 14.648 1.48 27.757-9.308 29.19-24.179 1.456-15.099.752-30.21-2.092-44.915-3-15.488-8.397-30.441-16.066-44.617 14.402.45 28.489 1.621 42.087 3.485 12.521 15.866 20.243 33.143 22.938 51.398 1.422 9.635 1.434 19.541.033 29.444-2.075 14.683 8.104 28.369 22.698 30.511 14.48 2.125 28.211-8.03 30.301-22.815 2.127-15.05 2.1-30.176-.082-44.957-1.313-8.892-3.425-17.69-6.303-26.304 7.46 2.864 14.571 5.999 21.265 9.405 3.635 1.85 8.183.455 10.085-3.283 1.879-3.691.409-8.207-3.283-10.086-41.217-20.976-98.196-32.537-156.761-31.991 4.036-5.23 7.795-10.327 11.28-15.298 21.967-31.336 32.646-57.016 32.646-78.506 0-14.776-5.14-27.395-15.276-37.503-21.208-21.151-57.113-24.484-101.098-9.387-42.189 14.48-87.391 44.362-127.278 84.14-57.788 57.632-93.688 125.303-93.688 176.605 0 21.275 6.477 38.98 18.732 51.201 10.165 10.137 22.665 15.204 37.403 15.203 15.602 0 33.712-5.678 54.213-17.031 4.202-2.327 8.517-4.899 12.944-7.704 34.203 16.529 91.414 24.633 174.627 24.745 47.564.064 89.006-2.708 119.769-8.114 37.693-6.624 63.402-17.231 78.597-32.427 10.448-10.448 15.735-23.004 15.714-37.319-.028-19.921-10.452-39.278-30.145-55.98zm-78.204-22.984c4.824 11.251 8.172 22.941 9.924 34.808 1.972 13.358 1.995 27.041.068 40.667-.922 6.522-6.852 11.015-13.278 10.072-6.447-.945-10.94-7.033-10.017-13.568 1.602-11.327 1.586-22.677-.047-33.735-2.369-16.049-8.09-31.372-17.032-45.754 10.533 2.074 20.692 4.581 30.382 7.51zm-192.736 73.51c-.585 6.121-5.589 10.733-11.651 10.733-3.712 0-7.078-1.702-9.302-4.584 6.981-6.338 14.18-13.088 21.606-20.255.009 4.7-.202 9.411-.653 14.106zm100.862-40.492c2.57 13.291 3.206 26.959 1.888 40.632-.63 6.54-6.354 11.335-12.81 10.683-6.477-.654-11.235-6.534-10.608-13.104 1.089-11.392.563-22.729-1.562-33.699-2.79-14.423-8.38-28.262-16.628-41.222 3.143-3.611 6.172-7.163 9.079-10.653 3.929-.149 7.894-.258 11.88-.297 9.224 14.978 15.533 30.993 18.761 47.66zm-122.128-173.174c11.358 4.544 21.982 10.439 31.602 17.584 10.839 8.052 20.53 17.71 28.804 28.708 3.698 4.916 3.111 11.695-1.365 15.769-5.142 4.679-13.363 3.835-17.579-1.77-6.877-9.142-14.914-17.156-23.887-23.82-13.017-9.668-27.889-16.457-44.37-20.304 8.913-5.977 17.87-11.383 26.795-16.167zm-147.158 144.567c11.707 4.045 22.705 9.508 32.757 16.296 11.189 7.558 21.305 16.773 30.066 27.391 3.918 4.749 3.641 11.555-.648 15.831-4.917 4.903-13.162 4.427-17.623-.979-7.282-8.825-15.671-16.473-24.934-22.729-9.27-6.261-19.51-11.132-30.507-14.582 3.209-7 6.845-14.093 10.889-21.228zm60.592 122.25c-33.789 18.712-57.915 20.129-73.758 4.329-9.505-9.479-14.324-23.132-14.324-40.58 0-15.324 3.789-32.634 10.763-50.876 10.128 3.036 19.513 7.421 27.949 13.118 8.071 5.451 15.392 12.128 21.759 19.845 10.057 12.189 28.654 13.152 39.786 2.052 9.798-9.77 10.497-25.246 1.625-35.998-9.676-11.726-20.859-21.911-33.24-30.273-10.282-6.944-21.453-12.617-33.289-16.97 6.147-9.734 12.995-19.48 20.487-29.104 15.321.864 36.291 4.83 55.63 17.892 8.072 5.45 15.392 12.127 21.758 19.843 9.454 11.458 26.427 13.143 37.824 3.826 11.48-9.384 13.015-26.348 3.588-37.771-5.958-7.221-12.555-13.923-19.607-19.92-3.154-2.682-7.889-2.301-10.572.855-2.684 3.155-2.301 7.889.855 10.572 6.382 5.427 12.355 11.496 17.753 18.039 4.191 5.08 3.514 12.501-1.513 16.611-5.041 4.122-12.559 3.332-16.759-1.76-7.282-8.825-15.67-16.472-24.933-22.727-15.192-10.261-33.162-16.864-52.61-19.438 5.949-6.959 12.219-13.812 18.786-20.51 11.12 2.646 21.744 6.484 31.626 11.45 3.641 1.83 8.186.413 10.069-3.333 1.86-3.701.368-8.209-3.333-10.069-8.224-4.133-16.907-7.543-25.921-10.23 10.497-9.857 21.298-18.994 32.252-27.301 20.066 2.368 37.735 9.124 52.545 20.123 7.819 5.808 14.832 12.805 20.845 20.797 9.501 12.629 28.064 14.4 39.66 3.847 10.237-9.316 11.637-24.741 3.257-35.881-9.138-12.147-19.853-22.823-31.847-31.732-7.215-5.358-14.929-10.085-23.054-14.141 6.287-2.803 12.53-5.275 18.699-7.393 16.632-5.709 31.774-8.547 44.976-8.547 17.186 0 31.08 4.812 40.661 14.367 7.313 7.293 10.868 16.086 10.868 26.882 0 18.05-10.069 41.566-29.929 69.896-9.926 14.159-22.393 30.697-35.218 44.044-44.688 46.505-98.817 105.542-154.114 136.166z" transform="matrix(0.10779930047840813 0.026949825061218416 -0.026949825061218416 0.10779930047840813 123.18279666310599 215.11415001029494)" id="L1_19" fill="#7d7d7d"/><path d="m233.582031 169.015625c-4.710937-14.625-17.113281-24.195313-34.589843-27.019531 4.789062-8.730469 8.066406-22.046875 3.800781-36.855469-7.199219-24.996094-31.113281-25.320313-44.113281-25.429687 5.488281-10.566407 10.878906-27.253907 7.0625-43.867188-2.625-11.425781-11.097657-26.390625-36.550782-32.785156-15.195312-3.816406-31.238281-3.246094-39.449218-2.566406-4.015626.335937-7.257813 3.449218-7.714844 7.402343-.460938 4 1.921875 7.671875 5.800781 8.929688 5.898437 1.90625 13.351563 5.964843 15.328125 14.445312 2.402344 10.3125-1.019531 24.859375-49.234375 46.003907-16.320313 7.15625-26.308594 17.265624-29.679687 30.042968-3.972657 15.042969 2.304687 29.847656 8.5 39.855469-5.148438 1.433594-11.011719 3.878906-16.273438 7.578125-10.378906 7.300781-15.902344 17.519531-15.96875 29.554688-.082031 14.980468 4.902344 24.972656 10.8125 31.554687-.941406 1.816406-1.480469 3.871094-1.480469 6.050781v9.722656c0 17.78125 12.082031 32.789063 28.464844 37.261719l10.6875 39.847657c0 .003906.003906.003906.003906.007812l34.941407 130.296875c.003906.003906.003906.007813.003906.015625l15.75 58.722656c2.28125 8.5 9.730468 14.214844 18.53125 14.214844 8.804687 0 16.253906-5.714844 18.53125-14.21875l61.386718-228.886719c16.386719-4.472656 28.46875-19.480469 28.46875-37.261719v-9.722656c0-2.105468-.507812-4.089844-1.386718-5.855468 8.558594-8.671876 15.96875-23.460938 8.367187-47.039063zm-111.324219 324.882813c-.75 2.796874-3.074218 3.097656-4.039062 3.097656s-3.292969-.300782-4.042969-3.097656l-11.71875-43.695313c9.386719 3.945313 18.921875 7.671875 28.535157 11.128906zm25.273438-94.246094c-2.222656-.824219-4.441406-1.65625-6.625-2.496094-3.867188-1.484375-8.207031.441406-9.695312 4.308594-1.488282 3.867187.4375 8.207031 4.308593 9.695312 2.671875 1.027344 5.386719 2.042969 8.113281 3.039063l-8.738281 32.585937c-12.667969-4.589844-25.203125-9.644531-37.394531-15.078125l-11.414062-42.5625c5.402343 2.753907 10.863281 5.417969 16.332031 7.96875 1.027343.476563 2.105469.703125 3.164062.703125 2.828125 0 5.535157-1.605468 6.804688-4.335937 1.75-3.757813.125-8.222657-3.632813-9.96875-9.441406-4.398438-18.828125-9.15625-27.96875-14.132813l-12.167968-45.371094c27.289062 17.34375 56.632812 31.925782 87.546874 43.472657zm12.53125-46.726563c-34.761719-13.109375-67.449219-30.179687-97.316406-50.800781l-8.546875-31.863281h19.140625c28.863281 20.769531 60.847656 37.917969 95.207031 51.039062zm12.390625-46.199219c-25.628906-9.890624-49.867187-22.109374-72.378906-36.464843h82.160156zm38.402344-98.027343h-126.464844c-4.144531 0-7.503906 3.355469-7.503906 7.5s3.359375 7.503906 7.503906 7.503906h127.207031v7.929687c0 11.957032-8.933594 21.863282-20.476562 23.40625-.003906.003907-.007813 0-.011719.003907-.527344.066406-1.050781.121093-1.5625.15625-.015625 0-.035156.003906-.050781.003906-.519532.035156-1.027344.050781-1.519532.050781h-139.515624c-.496094 0-1.003907-.015625-1.523438-.050781-.015625 0-.03125-.003906-.050781-.003906-.511719-.035157-1.03125-.085938-1.558594-.15625-.007813-.003907-.011719 0-.015625-.003907-11.542969-1.542968-20.476562-11.449218-20.476562-23.40625v-7.929687h24.40625c4.144531 0 7.503906-3.359375 7.503906-7.503906s-3.359375-7.5-7.503906-7.5h-23.738282c-6.695312-5.347657-10.058594-13.515625-10-24.3125.09375-17.105469 19.445313-23.03125 26.210938-23.757813.316406-.03125.617187-.097656.925781-.160156 3.023437 3.710938 6.457031 7.707031 9.136719 10.226562 1.449218 1.359376 3.292968 2.03125 5.136718 2.03125 2 0 3.992188-.792968 5.46875-2.363281 2.835938-3.023437 2.691407-7.769531-.332031-10.605469-4.078125-3.832031-11.703125-13.625-14.398437-17.214843-4.609375-6.640625-12-19.667969-8.902344-31.398438 2.144531-8.132812 9.277344-14.90625 21.199219-20.132812 30.640625-13.4375 64.902343-32.757813 57.820312-63.152344-1.171875-5.011719-3.304687-9.109375-5.925781-12.453125 16.273438 1.363281 35.351562 6.710938 39.277344 23.796875 3.179687 13.84375-2.523438 28.007813-6.75 35.421875-2.898438 4.800781-12.355469 17.960938-22.015625 22.445312-3.757813 1.746094-5.390625 6.207032-3.644531 9.964844 1.269531 2.734375 3.980468 4.34375 6.808593 4.34375 1.058594 0 2.132813-.222656 3.15625-.699218 7.878907-3.65625 14.84375-10.449219 19.929688-16.484376.207031.039063.410156.09375.621093.117188 2.722657.347656 5.835938.371094 9.132813.398438 15.152344.128906 26.175781 1.246093 30.019531 14.582031 3.21875 11.183593.09375 21.046875-3.035156 26.339843-1.558594 2.101563-10.171875 13.429688-21.324219 22.582032-3.203125 2.628906-3.667969 7.355468-1.039062 10.558594 1.480469 1.808593 3.632812 2.746093 5.800781 2.746093 1.675781 0 3.359375-.558593 4.753906-1.703125 5.582032-4.582031 10.535156-9.5625 14.484375-13.914062.648438.148437 1.3125.242187 1.992188.269531 10.929687.40625 24.882812 3.761719 29.292969 17.445313 5.078124 15.765624 2.316406 27.265624-8.449219 35.082031zm0 0" transform="matrix(0.09757915602602879 -0.06610200516960095 0.06610200516960095 0.09757915602602879 216.0262622647968 -0.48871581320980084)" id="L1_20" fill="#7d7d7d"/><g transform="matrix(0.09841390859141727 -0.04428625832539391 0.04428625832539391 0.09841390859141727 85.48490581337279 309.1363881080257)" id="L1_23"><path d="M288.273,116.102c-0.386-2.776-0.416-5.596-0.086-8.382c0.487-4.113-2.455-7.843-6.567-8.329    c-4.114-0.486-7.843,2.454-8.33,6.567c-0.48,4.058-0.438,8.167,0.125,12.213c0.571,4.103,4.36,6.965,8.463,6.394    c1.68-0.234,3.152-1.007,4.266-2.121C287.75,120.839,288.61,118.525,288.273,116.102z" fill="#7d7d7d"/><path d="M172.953,178.912c-2.565-3.253-7.281-3.811-10.534-1.246c-3.209,2.53-6.085,5.465-8.548,8.725    c-2.497,3.303-1.842,8.007,1.463,10.504c1.354,1.022,2.941,1.517,4.516,1.517c2.271,0,4.515-1.028,5.99-2.979    c1.69-2.237,3.665-4.252,5.867-5.988C174.96,186.881,175.518,182.164,172.953,178.912z" fill="#7d7d7d"/><path d="M159.283,214.98c0-1.406,0.091-2.82,0.271-4.206c0.532-4.107-2.367-7.869-6.475-8.401    c-4.105-0.536-7.87,2.367-8.402,6.475c-0.262,2.021-0.395,4.084-0.395,6.132c0,2.032,0.131,4.079,0.388,6.083    c0.488,3.783,3.715,6.545,7.432,6.545c0.318,0,0.641-0.021,0.965-0.062c4.108-0.528,7.011-4.287,6.483-8.395    C159.373,217.778,159.283,216.375,159.283,214.98z" fill="#7d7d7d"/><path d="M229.732,186.429c-2.46-3.263-5.333-6.202-8.54-8.734c-3.25-2.568-7.967-2.015-10.535,1.236    c-2.567,3.251-2.013,7.968,1.238,10.535c2.2,1.738,4.171,3.754,5.859,5.994c1.474,1.956,3.721,2.985,5.995,2.985    c1.572,0,3.157-0.493,4.509-1.512C231.565,194.439,232.225,189.737,229.732,186.429z" fill="#7d7d7d"/><path d="M238.901,208.896c-0.528-4.108-4.29-7.009-8.396-6.483c-4.109,0.528-7.011,4.286-6.483,8.395    c0.177,1.373,0.266,2.776,0.266,4.171c0,1.406-0.091,2.82-0.271,4.206c-0.532,4.107,2.367,7.869,6.475,8.401    c0.327,0.042,0.651,0.063,0.973,0.063c3.714,0,6.939-2.757,7.429-6.538c0.262-2.021,0.395-4.084,0.395-6.132    C239.289,212.947,239.158,210.9,238.901,208.896z" fill="#7d7d7d"/><path d="M422.797,150.849h-30.001c-12.407,0-22.501,10.094-22.501,22.501c0,12.406,10.095,22.5,22.501,22.5    c4.143,0,7.5-3.357,7.5-7.5s-3.357-7.5-7.5-7.5c-4.136,0-7.5-3.364-7.5-7.5s3.364-7.501,7.5-7.501h30.001    c4.136,0,7.5,3.365,7.5,7.501s-3.364,7.5-7.5,7.5c-4.143,0-7.5,3.357-7.5,7.5s3.357,7.5,7.5,7.5    c12.407,0,22.501-10.094,22.501-22.5C445.298,160.943,435.204,150.849,422.797,150.849z" fill="#7d7d7d"/><path d="M463.596,119.115c-1.201,0-15.946,4.354-24.001-5c-19.824-21.897-58.79-17.619-73.383,8.521c0,0.01,0,0.01-0.01,0.02    c-3.296,5.81-9.545,8.842-15.982,8.092l-73.749-73.746c-2.93-2.928-7.678-2.928-10.608,0    c-8.663,10.327-15.147,15.99-20.061,33.772c0,0.001-0.001,0.003-0.001,0.004c-12.184-3.897-25.241-2.906-36.072,2.694    l-16.639-16.64c-8.772-8.771-23.048-8.771-31.822,0c-4.956,4.956-7.108,11.667-6.464,18.151    c-17.081-0.102-33.789,9.022-42.017,24.392c-1.305,2.438-2.875,4.525-4.666,6.204c-3.022,2.833-3.175,7.579-0.342,10.602    c2.834,3.021,7.58,3.174,10.602,0.342c2.984-2.799,5.552-6.186,7.631-10.068c7.215-13.48,24.935-19.99,39.496-14.507    c7.513,2.817,13.623-6.646,7.945-12.324l-1.577-1.576c-2.925-2.925-2.925-7.684-0.001-10.607c2.925-2.924,7.683-2.924,10.608,0    c22.925,22.924,23.393,22.35,23.393,26.517c0,6.732-8.136,9.953-12.785,5.304c-2.929-2.929-7.678-2.93-10.607-0.001    c-2.93,2.929-2.93,7.678-0.001,10.606c4.237,4.238,9.888,6.572,15.911,6.572c12.459,0,22.482-10.019,22.482-22.481    c0-2.909-0.556-5.727-1.597-8.345c7.355-2.871,16.07-2.89,23.926,0.14c-2.432,32.548,15.485,62.024,43.403,75.54    c-2.435,4.135-6.48,6.799-10.56,7.532l-0.09,0.021c-3.494,0.688-6.882,1.821-10.109,3.339    c-9.759-31.641-39.26-54.705-74.062-54.705c-34.024,0-62.975,22.045-73.375,52.594c-0.221-1.551-0.919-3.047-2.113-4.24    c-4.238-4.237-9.889-6.571-15.911-6.571c-6.023,0-11.673,2.334-15.91,6.571l-21.216,21.214c-8.772,8.773-8.772,23.048,0.001,31.82    c1.465,1.464,3.385,2.196,5.304,2.196s3.839-0.732,5.304-2.196c2.929-2.93,2.929-7.678,0-10.607    c-2.925-2.924-2.925-7.683-0.002-10.606l21.216-21.214c1.405-1.404,3.288-2.178,5.303-2.178c2.015,0,3.898,0.773,5.303,2.179    c2.93,2.928,7.678,2.928,10.607,0c0.115-0.115,0.218-0.237,0.323-0.358c-1.522,6.051-2.34,12.38-2.34,18.897    c0,9.577,1.766,18.742,4.962,27.213H53.722c-11.043-4.552-16.226-14.887-15.087-24.754c0.84-7.116-1.259-17.373-16.041-25.842    c-2.986-1.698-5.394-4.296-6.634-7.188c-4.333-9.866,6.895-18.685,17.23-16.323c12.144,2.672,22.44,0.016,28.942-7.409    c7.936-8.833,24.611-7.024,30.529,3.631c2.01,3.622,6.576,4.93,10.198,2.916c3.622-2.01,4.927-6.576,2.917-10.197    c-10.879-19.595-39.914-22.942-54.864-6.304c-3.584,4.091-9.861,3.734-14.447,2.725c-11.255-2.561-23.218,1.457-30.464,10.231    c-11.299,13.684-5.742,32.472,9.158,40.945c9.258,5.304,8.748,9.634,8.578,11.075c-1.149,9.952,1.772,20.174,7.876,28.065    c-7.362,2.223-13.896,6.738-18.722,13.115c-7.151,9.446-9.405,21.408-6.186,32.82c13.221,46.862,48.939,87.723,100.78,115.436    c1.099,13.813,7.2,26.62,17.346,36.289c10.67,10.169,24.63,15.769,39.308,15.769H341.47c14.677,0,28.637-5.6,39.308-15.769    c10.143-9.667,16.245-22.47,17.345-36.276c51.768-27.67,87.463-68.47,100.729-115.269c3.256-11.486,1.008-23.52-6.167-33.012    c-7.051-9.326-17.758-14.675-29.375-14.675H315.334c5.572-19.292,23.236-32.997,44.028-32.997h0.04    c14.17,0,27.341,6.44,36.131,17.66c1.43,1.83,3.59,2.88,5.92,2.88c1.68,0,3.279-0.55,4.609-1.59    c3.261-2.55,3.841-7.271,1.29-10.53c-11.14-14.267-28.533-23.42-47.951-23.42c-15.182,0.01-29.722,5.64-40.952,15.85    c-9.449,8.602-15.888,19.835-18.551,32.147h-45.379c-2.363-9.69,0.336-19.758,6.379-27.377    c12.317-15.543,22.865-7.164,35.191-21.14c2.137-2.423,3.637-4.85,4.717-7.157c2.123-4.536,2.623-9.72,3.062-14.708    c1.531-17.412,20.274-32.353,39.574-27.175c18.396,5.346,33.748-8.108,35.871-14.69c9.738-17.383,36.435-19.903,49.153-5.77    c3.33,3.77,7.59,6.71,12.34,8.52c10.32,3.944,23.096,2.082,26.122,1.04c8.577-1.926,17.168,0.681,23.011,5.81    c12.646,11.117,6.66,26.863-5.52,33.721l-0.01,0.01c-13.28,7.582-23.392,18.731-21.401,33.76c1.597,14.339-4.686,17.43-2.16,23.21    c2.68,6.083,11.433,5.944,13.861-0.31c5.228-13.495,3.09-25.266,3.09-26.36c0.03-3.3,1.1-6,3.57-9.04    c2.29-2.8,5.9-5.64,10.43-8.21l0.01-0.01c7.771-4.42,13.901-11.11,17.261-18.83c1.95-4.43,2.931-9,2.931-13.59    C511.999,130.971,487.506,113.607,463.596,119.115z M191.786,152.479c29.807,0,54.785,20.979,60.996,48.942    c-1.28,1.285-2.502,2.643-3.646,4.084c-6.74,8.52-10.46,19.039-10.47,29.63c0,2.381,0.192,4.735,0.561,7.057h-8.704    c3.748-8.091-7.398-14.8-12.791-7.666c-1.69,2.237-3.664,4.252-5.867,5.988c-0.62,0.489-1.141,1.057-1.563,1.678h-11.017v-0.761    c11.529-3.273,20.001-13.889,20.001-26.452c0-4.143-3.357-7.5-7.5-7.5s-7.5,3.357-7.5,7.5c0,6.893-5.608,12.5-12.5,12.5    c-6.893,0-12.501-5.607-12.501-12.5s5.608-12.5,12.501-12.5c3.657,0,6.698-2.618,7.362-6.081c0.045,0.018,0.093,0.03,0.138,0.048    c0-12.384,0-9.388,0-21.467c0-4.142-3.358-7.5-7.5-7.5c-4.143,0-7.5,3.358-7.5,7.5v13.548    c-11.529,3.274-20.001,13.889-20.001,26.452c0,12.563,8.472,23.178,20.001,26.452v0.761h-11.035    c-0.423-0.629-0.947-1.205-1.573-1.7c-2.2-1.738-4.172-3.754-5.86-5.994c-5.401-7.164-16.579-0.401-12.782,7.693h-17.49    c-4.005-8.23-6.263-17.46-6.263-27.213C129.283,180.517,157.321,152.479,191.786,152.479z M463.307,257.192    c6.875,0,13.22,3.179,17.409,8.721c4.315,5.708,5.665,12.952,3.701,19.876c-12.316,43.447-46.185,81.463-95.446,107.217h-244.17    c-4.13,0-7.5,3.359-7.5,7.5c0,4.13,3.371,7.5,7.5,7.5h237.822c-3.569,19.315-20.909,34.187-41.156,34.187h-177.33    c-22.264,0-41.018-17.979-41.806-40.082c-0.062-1.689,0.188-3.73-1.487-6.041c-0.606-0.839-1.571-1.698-2.625-2.242    c-50.197-25.804-84.673-64.229-97.079-108.2c-1.932-6.851-0.581-14.028,3.709-19.695c4.204-5.554,10.563-8.739,17.448-8.739    C63.176,257.192,442.3,257.192,463.307,257.192z M303.335,141.637c-0.966-4.38-3.892-4.055-8.658-10.243    c-2.528-3.281-7.238-3.891-10.52-1.362c-3.282,2.524-3.891,7.238-1.362,10.519c2.395,3.107,5.283,6.053,8.634,8.642    c1.288,0.994,2.796,1.5,4.307,1.555c-2.911,4.548-5.035,9.512-6.158,15.16c-33.657-19.079-41.508-63.352-18.307-92.891    l25.154,25.153c-2.271,4.052-3.485,8.636-3.485,13.408c0,7.346,2.861,14.252,8.054,19.446c2.931,2.929,7.678,2.928,10.608,0    c2.929-2.93,2.929-7.678,0-10.607c-2.361-2.36-3.661-5.5-3.661-8.839c0-0.594,0.056-1.178,0.137-1.756l19.457,19.456    C318.928,130.872,310.664,134.873,303.335,141.637z" fill="#7d7d7d"/></g><g transform="matrix(0.10254731863442827 -0.03418243784372953 0.03418243784372953 0.10254731863442827 192.20208982724668 82.58131967150507)" id="L1_24"><path d="M399.998,79.997h-40v-72c-0.002-4.418-3.585-7.999-8.003-7.997c-0.763,0-1.521,0.11-2.253,0.325l-272,80    c-0.16,0-0.28,0.16-0.44,0.216c-0.407,0.165-0.801,0.363-1.176,0.592c-0.484,0.259-0.939,0.568-1.36,0.92    c-0.31,0.288-0.599,0.598-0.864,0.928c-0.351,0.425-0.659,0.883-0.92,1.368c-0.189,0.374-0.35,0.762-0.48,1.16    c-0.185,0.563-0.304,1.145-0.352,1.736c0,0.264-0.152,0.488-0.152,0.752v384c0,4.418,3.582,8,8,8h320c4.418,0,8-3.582,8-8v-384    C407.998,83.578,404.417,79.997,399.998,79.997z M343.998,18.685v61.312H135.55L343.998,18.685z M391.998,463.997h-304v-368h304    V463.997z" fill="#7d7d7d"/><path d="M183.996,127.999c-2.807,0.001-5.407,1.472-6.854,3.878l-17.144,28.568l-17.144-28.568    c-2.277-3.786-7.192-5.01-10.979-2.733c-2.405,1.446-3.877,4.047-3.878,6.853v64c0,4.418,3.582,8,8,8s8-3.582,8-8v-35.12    l9.144,15.24c2.595,3.786,7.769,4.752,11.555,2.157c0.846-0.58,1.577-1.311,2.157-2.157l9.144-15.24v35.12c0,4.418,3.582,8,8,8    s8-3.582,8-8v-64C191.997,131.578,188.414,127.998,183.996,127.999z" fill="#7d7d7d"/><path d="M231.998,175.997c4.418,0,8-3.582,8-8s-3.582-8-8-8h-16v-16h16c4.418,0,8-3.582,8-8s-3.582-8-8-8h-24    c-4.418,0-8,3.582-8,8v64c0,4.418,3.582,8,8,8h24c4.418,0,8-3.582,8-8s-3.582-8-8-8h-16v-16H231.998z" fill="#7d7d7d"/><path d="M287.998,127.997c-4.418,0-8,3.582-8,8v30.112l-16.8-33.688c-1.925-3.977-6.71-5.64-10.687-3.714    c-2.79,1.351-4.548,4.191-4.513,7.29v64c0,4.418,3.582,8,8,8c4.418,0,8-3.582,8-8v-30.112l16.8,33.688    c1.925,3.977,6.71,5.64,10.687,3.714c2.79-1.351,4.548-4.191,4.513-7.29v-64C295.998,131.578,292.417,127.997,287.998,127.997z" fill="#7d7d7d"/><path d="M343.998,127.997c-4.418,0-8,3.582-8,8v48c0,4.418-3.582,8-8,8s-8-3.582-8-8v-48c0-4.418-3.582-8-8-8s-8,3.582-8,8v48    c0,13.255,10.745,24,24,24s24-10.745,24-24v-48C351.998,131.578,348.417,127.997,343.998,127.997z" fill="#7d7d7d"/><path d="M367.998,279.997h-256c-4.418,0-8,3.582-8,8s3.582,8,8,8h256c4.418,0,8-3.582,8-8S372.417,279.997,367.998,279.997z" fill="#7d7d7d"/><path d="M367.998,327.997h-256c-4.418,0-8,3.582-8,8s3.582,8,8,8h256c4.418,0,8-3.582,8-8S372.417,327.997,367.998,327.997z" fill="#7d7d7d"/><path d="M367.998,375.997h-256c-4.418,0-8,3.582-8,8s3.582,8,8,8h256c4.418,0,8-3.582,8-8S372.417,375.997,367.998,375.997z" fill="#7d7d7d"/></g><g transform="matrix(0.09467653614932846 -0.022951887948107718 0.022951887948107718 0.09467653614932846 267.8872557274153 301.6386146876703)" id="L1_25"><ellipse cx="185px" cy="331px" rx="9px" ry="16px" transform="matrix(0.8132 -0.582 0.582 0.8132 -158.3954 169.916)" fill="#7d7d7d"/><ellipse cx="218px" cy="248px" rx="9px" ry="16px" transform="matrix(0.8132 -0.582 0.582 0.8132 -103.9845 173.6442)" fill="#7d7d7d"/><ellipse cx="299px" cy="302px" rx="9px" ry="16px" transform="matrix(0.8132 -0.582 0.582 0.8132 -119.8029 230.8407)" fill="#7d7d7d"/><ellipse cx="415px" cy="178px" rx="9px" ry="16px" transform="matrix(0.8132 -0.582 0.582 0.8132 -26.5244 275.1357)" fill="#7d7d7d"/><ellipse cx="390px" cy="279px" rx="9px" ry="16px" transform="matrix(0.8132 -0.582 0.582 0.8132 -89.5276 279.6527)" fill="#7d7d7d"/><ellipse cx="441px" cy="363px" rx="9px" ry="16px" transform="matrix(0.8132 -0.582 0.582 0.8132 -129.3115 325.0601)" fill="#7d7d7d"/><ellipse cx="330px" cy="409px" rx="9px" ry="16px" transform="matrix(0.8132 -0.582 0.582 0.8132 -176.4076 268.6742)" fill="#7d7d7d"/><ellipse cx="408px" cy="451px" rx="9px" ry="16px" transform="matrix(0.8132 -0.582 0.582 0.8132 -186.1727 322.0204)" fill="#7d7d7d"/><ellipse cx="227px" cy="410px" rx="9px" ry="16px" transform="matrix(0.8132 -0.582 0.582 0.8132 -196.1305 209.0085)" fill="#7d7d7d"/><ellipse cx="318px" cy="191px" rx="9px" ry="16px" transform="matrix(0.8132 -0.582 0.582 0.8132 -52.0619 221.2626)" fill="#7d7d7d"/><path d="M484.512,355.756c-4.156-0.31-7.741,2.794-8.051,6.93c-2.453,32.895-9.062,64.258-19.647,93.207    c-8.982,24.574-32.635,41.086-58.84,41.086c-1.692,0-3.415-0.07-5.107-0.21c-105.484-8.582-202.537-76.334-203.498-77.015    c-0.06-0.05-0.12-0.09-0.18-0.13c-25.525-16.933-44.961-42.138-54.755-70.957c-1.332-3.925-5.598-6.028-9.523-4.696    c-3.925,1.332-6.028,5.598-4.696,9.523c10.835,31.924,32.344,59.822,60.573,78.587c1.953,1.372,26.236,18.265,63.757,36.43    c35.428,17.143,89.703,38.563,147.101,43.229c2.103,0.17,4.226,0.26,6.329,0.26c32.494,0,61.805-20.478,72.94-50.95    c11.065-30.251,17.965-62.976,20.528-97.243C491.742,359.672,488.648,356.067,484.512,355.756z" fill="#7d7d7d"/><path d="M477.413,219.93c-16.583-63.487-72.559-110.081-134.434-112.774c6.369-12.036,9.683-24.493,11.245-35.869    c0.571-4.116-2.303-7.901-6.419-8.462c-4.106-0.571-7.891,2.303-8.462,6.409c-2.033,14.77-6.739,27.568-14.089,38.393    c-15.071,1.492-29.54,5.788-42.789,12.707c0.551-2.724,0.981-5.468,1.292-8.241c0.471-4.126-2.503-7.841-6.619-8.301    c-4.136-0.461-7.841,2.503-8.301,6.629c-0.871,7.761-2.904,15.301-6.088,22.611l-40.796,29.2    c-2.447-3.407-4.408-5.774-5.107-6.659c-8.071-13.198-15.842-31.463-15.842-52.922c0-24.744,10.234-49.408,30.422-73.31    c1.652-1.963,3.765-2.253,4.877-2.253c2.033,0,3.915,0.921,5.147,2.533c5.327,6.97,11.576,16.282,16.803,27.207    c3.977,8.263,7.151,17.033,9.072,26.116c0.861,4.056,4.847,6.649,8.902,5.798c4.056-0.861,6.649-4.847,5.798-8.912    c-1.632-7.671-3.995-14.97-6.799-21.79c10.234-15.621,26.757-30.632,52.802-42.448c0.841-0.38,1.722-0.571,2.614-0.571    c2.604,0,5.608,1.762,6.319,5.127c1.462,6.909,2.483,13.889,3.034,20.728c0.33,4.136,3.935,7.22,8.081,6.889    c4.136-0.33,7.22-3.945,6.889-8.081c-0.601-7.49-1.712-15.111-3.305-22.651C349.568,7.16,340.726,0,330.642,0    c-3.044,0-6.018,0.641-8.822,1.913c-25.114,11.386-42.388,25.515-54.084,40.525c-4.747-8.622-9.843-16.042-14.35-21.94    c-4.106-5.357-10.324-8.432-17.083-8.432c-6.319,0-12.287,2.764-16.352,7.58c-22.541,26.687-33.966,54.615-33.966,83.003    c0,3.875,0.23,7.65,0.631,11.326L153.54,67.763c-2.413-3.375-7.11-4.146-10.484-1.742c-3.365,2.423-4.146,7.11-1.732,10.484    l32.434,45.312c-23.702-10.655-56.427-14.96-98.865,1.652c-6.058,2.373-10.665,7.3-12.617,13.529    c-1.963,6.249-0.991,12.958,2.644,18.385c3.955,5.908,9.363,13.208,16.172,20.668c-19.727,6.819-38.413,19.557-55.846,38.122    c-3.735,3.975-5.788,9.173-5.788,14.63c0,7.66,3.915,14.57,10.484,18.485c6.639,3.955,13.518,7.48,20.428,10.464    c3.815,1.642,8.231-0.11,9.873-3.915c1.642-3.815-0.11-8.231-3.915-9.874c-6.319-2.734-12.617-5.958-18.696-9.583    c-1.983-1.172-3.154-3.254-3.154-5.578c0-1.142,0.29-2.824,1.722-4.346c17.874-19.036,37.031-31.213,57.148-36.38    c16.32,14.27,35.337,24.306,56.587,27.017c-10.984,10.363-19.775,22.718-26.093,36.484c-13.245,3.607-26.931,3.529-40.458,0.907    c-4.076-0.781-8.011,1.873-8.802,5.948s1.873,8.011,5.948,8.802c7.4,1.432,14.74,2.163,21.81,2.163h0.01    c5.217,0,10.304-0.381,15.261-1.132c-3.505,11.916-5.337,24.594-5.337,37.752c0,5.518,0.33,11.135,0.981,16.693    c0.481,4.126,4.216,7.07,8.331,6.589c4.116-0.481,7.07-4.206,6.589-8.331c-0.581-4.977-0.881-10.014-0.881-14.95    c0-16.946,3.514-32.853,9.111-45.648c13.138-30.661,36.317-44.126,36.992-44.915l0.499-0.349c0.004-0.003,0.011-0.008,0.018-0.013    c0.012-0.008,0.023-0.017,0.032-0.023c0.008-0.006,0.017-0.012,0.026-0.019c0.01-0.007,0.016-0.011,0.014-0.01    c1.065-0.762,12.124-8.678,103.243-73.898c65.337-46.782,163.228-3.268,185.654,82.583c9.663,37.001,14.59,73.841,14.64,109.52    c0.01,4.146,3.375,7.5,7.51,7.5c4.137,0,7.52-3.353,7.51-7.52C492.483,296.274,487.396,258.152,477.413,219.93z M168.42,200.544    c-18.386,1.54-36.66-3.219-54.324-15.311c-6.028-4.116-11.466-8.752-16.312-13.488c-8.892-8.712-15.742-17.784-20.388-24.714    c-1.091-1.632-1.382-3.655-0.781-5.538c0.34-1.091,1.282-3.074,3.755-4.046c17.274-6.759,33.576-10.134,48.827-10.134    c29.048,0,53.826,12.473,72.96,34.187l5.708,7.981c0.441,0.641,0.881,1.272,1.322,1.883L168.42,200.544z" fill="#7d7d7d"/></g><g transform="matrix(0.09115048386512035 0.02485922230313728 -0.02485922230313728 0.09115048386512035 148.02943704013234 18.301515220926046)" id="L1_26"><path d="M306,46c-11.05,0-20,8.95-20,20s8.95,20,20,20s20-8.95,20-20S317.05,46,306,46z" fill="#7d7d7d"/><path d="M256,126c-5.52,0-10,4.48-10,10s4.48,10,10,10s10-4.48,10-10S261.52,126,256,126z" fill="#7d7d7d"/><path d="M206,46c-11.05,0-20,8.95-20,20s8.95,20,20,20s20-8.95,20-20S217.05,46,206,46z" fill="#7d7d7d"/><path d="M299.744,170.588l-5.78-11.56c-2.47-4.94-8.479-6.943-13.417-4.472c-4.939,2.47-6.941,8.477-4.472,13.417l5.792,11.582    c1.421,2.825,1.878,5.858,1.359,9l-7.53,45.14c-1.017,6.096,3.684,11.647,9.875,11.647c4.8,0,9.036-3.466,9.852-8.356    l7.533-45.156C304.165,184.511,303.05,177.158,299.744,170.588z" fill="#7d7d7d"/><path d="M437.362,4.876c-4.175-1.26-8.905-2.688-10.335-3.52c-3.094-1.799-6.912-1.808-10.014-0.023    C413.911,3.118,412,6.422,412,10v40.089c-24.323,14.582-40,41.142-40,70.631c0,20.881,4.582,39.545,14.323,58.268    c-4.379,2.199-12.334,3.824-24.556-0.223c-3.369-1.114-12.776-3.464-19.39-5.078c-2.814-16.755-9.47-24.878-19.544-46.38    c-9.739-19.478-27.548-33.697-48.454-39.01L265.7,53.575C264.589,49.123,260.589,46,256,46s-8.589,3.123-9.701,7.575    l-8.679,34.722c-20.906,5.313-38.715,19.532-48.454,39.01c-10.116,21.592-16.73,29.619-19.544,46.38    c-6.614,1.614-16.023,3.965-19.396,5.08c-12.215,4.046-20.171,2.42-24.55,0.22C135.422,160.248,140,141.592,140,120.72    c0-28.674-14.986-55.635-40-70.631V10c0-3.578-1.912-6.884-5.014-8.668c-3.102-1.784-6.92-1.776-10.014,0.023    c-1.43,0.832-6.16,2.26-10.335,3.52C50.411,12.19,0,27.409,0,86.23v48.95c0,36.995,32.586,88.229,85.945,90.717    c14.347,12.681,33.926,19.198,53.477,19.198c12.686,0,25.355-2.751,36.571-8.331l1.133,6.797    c1.824,10.962,6.09,21.378,12.417,30.454C187.202,281.078,186,288.445,186,296c0,10.932,2.527,21.807,7.331,31.801    C188.526,337.447,186,348.145,186,359c0,13.045,3.542,25.812,10.126,37.106C178.249,403.829,166,421.586,166,442    c0,27.57,22.43,50,50,50c0.078,0,0.155,0,0.232-0.001C225.626,504.477,240.334,512,256,512s30.374-7.523,39.768-20.001    c0.077,0,0.154,0.001,0.232,0.001c27.57,0,50-22.43,50-50c0-20.414-12.249-38.171-30.125-45.894    C322.458,384.815,326,372.047,326,359c0-10.855-2.526-21.553-7.331-31.2c4.805-9.998,7.331-20.87,7.331-31.8    c0-7.555-1.202-14.922-3.543-21.985c6.327-9.076,10.594-19.491,12.417-30.45l1.134-6.801    c28.517,14.187,66.384,10.047,90.046-10.867C479.414,223.409,512,172.175,512,135.18V86.23    C512,27.409,461.589,12.189,437.362,4.876z M84.483,205.765C44.939,202.354,20,162.792,20,135.18V86.23    c0-43.697,37.357-55.244,60-62.082c0,11.718,0,77.7,0,91.852c0,5.523,4.478,10,10,10c5.522,0,10-4.477,10-10V74.955    c12.569,11.636,20,28.146,20,45.766C120,161.163,100.179,181.222,84.483,205.765z M103.013,213.976    c3.201-4.768,8.2-11.588,12.415-17.885c12.548,7.02,27.49,6.165,41.08,1.663c1.835-0.606,6.998-1.944,12.539-3.325    c0.399,3.572,0.611,4.137,3.441,21.322C152.363,229.009,122.396,227.987,103.013,213.976z M326,442    c0,17.31-15.041,32.188-33.959,29.557c-4.044-0.534-8.019,1.447-10.023,5.006C276.654,486.085,266.685,492,256,492    s-20.654-5.915-26.018-15.438c-2.005-3.56-5.979-5.541-10.023-5.006l-1.058,0.145C202.517,473.998,186,460.408,186,442    c0-14.145,9.794-26.165,23.272-29.238C222.181,425.041,238.904,432,256,432c17.092,0,33.812-6.956,46.727-19.238    C316.206,415.835,326,427.855,326,442z M207.294,347.798C220.331,361.154,237.864,369,256,369    c18.137,0,35.672-7.847,48.707-21.201C305.545,351.457,306,355.211,306,359c0,12.991-5.111,26.177-14.016,36.166    C282.282,406.022,269.503,412,256,412s-26.282-5.979-35.976-16.824C211.111,385.177,206,371.991,206,359    C206,355.211,206.455,351.456,207.294,347.798z M206,296c0-1.599,0.081-3.184,0.228-4.756C218.985,300.753,234.539,306,250.83,306    h10.34c16.291,0,31.845-5.247,44.602-14.756c0.147,1.572,0.228,3.157,0.228,4.756c0,9.478-2.628,18.937-7.606,27.364    C289.078,339.177,272.833,349,256,349s-33.078-9.823-42.399-25.646C208.628,314.937,206,305.478,206,296z M315.146,240.279    c-1.573,9.455-5.618,18.358-11.698,25.749C293.006,278.72,277.597,286,261.17,286h-10.34c-16.427,0-31.836-7.28-42.277-19.974    c-6.08-7.39-10.125-16.293-11.698-25.751c-8.205-49.205-8.716-49.536-8.147-57.812c0-0.006,0.001-0.012,0.001-0.017    c1.12-16.766,8.427-24.573,18.346-46.194c7.873-15.746,22.945-26.798,40.318-29.566c3.958-0.63,7.156-3.563,8.128-7.451L256,97.24    l0.499,1.995c0.972,3.888,4.17,6.82,8.128,7.451c17.373,2.768,32.445,13.821,40.318,29.566    c9.919,21.622,17.225,29.414,18.348,46.212C324.036,193.282,315.146,240.279,315.146,240.279z M339.512,215.751l2.893-17.347    c0.22-1.32,0.4-2.646,0.549-3.975c5.54,1.381,10.701,2.718,12.532,3.323c13.629,4.514,28.556,5.346,41.085-1.661    c4.211,6.291,9.178,13.064,12.416,17.886C389.606,227.985,359.642,229.008,339.512,215.751z M492,135.18    c0,27.612-24.938,67.174-64.483,70.584C412.897,182.904,392,161.891,392,120.72c0-17.589,7.411-34.112,20-45.766V116    c0,5.523,4.478,10,10,10c5.522,0,10-4.477,10-10c0-5.888,0-80.801,0-91.852c22.643,6.838,60,18.385,60,62.082V135.18z" fill="#7d7d7d"/></g><g transform="matrix(0.09943689108425573 -0.03590776760463411 0.03590776760463411 0.09943689108425573 130.35176737564422 151.73654438921687)" id="L1_27"><path d="M503.467,409.6H8.533c-4.71,0-8.533,3.814-8.533,8.533C0,469.888,42.112,512,93.867,512h324.267    C469.888,512,512,469.888,512,418.133C512,413.414,508.186,409.6,503.467,409.6z M418.133,494.933H93.867    c-39.467,0-72.073-29.918-76.331-68.267h476.919C490.197,465.016,457.6,494.933,418.133,494.933z" fill="#7d7d7d"/><path d="M256.009,281.6c-0.043,0-0.077,0-0.111,0c-33.63,0-65.929,12.382-90.931,34.876l11.409,12.681    c21.871-19.661,50.108-30.49,79.531-30.49c0.026,0,0.068,0,0.094,0c47.292,0,87.723,24.695,103.006,62.899l15.855-6.332    C356.966,310.502,310.306,281.6,256.009,281.6z" fill="#7d7d7d"/><path d="M321.229,339.234c-43.537-35.951-108.203-29.781-144.162,13.739l13.158,10.863    c29.961-36.267,83.857-41.421,120.124-11.452c5.888,4.873,11.093,10.505,15.471,16.725l13.978-9.805    C334.541,351.838,328.294,345.088,321.229,339.234z" fill="#7d7d7d"/><path d="M303.778,369.374c-26.897-26.359-70.195-25.899-96.546,0.973l12.194,11.947c19.763-20.156,52.25-20.489,72.405-0.742    c9.771,9.566,15.369,22.895,15.369,36.582h17.067C324.267,399.889,316.8,382.114,303.778,369.374z" fill="#7d7d7d"/><path d="M350.242,315.733c-0.128,0-0.247,0-0.375,0h-8.533V332.8h8.567c48.444,0.188,89.813,37.632,93.867,86.042l16.998-1.417    C455.996,360.329,407.467,315.733,350.242,315.733z" fill="#7d7d7d"/><path d="M400.751,369.451c-15.292-13.67-35.004-20.591-55.475-19.43c-20.48,1.135-39.287,10.189-52.966,25.472l12.715,11.383    c10.641-11.887,25.267-18.935,41.199-19.823c16.017-0.828,31.249,4.48,43.153,15.113c10.726,9.6,17.63,22.75,19.439,37.043    l16.939-2.15C423.424,398.694,414.541,381.781,400.751,369.451z" fill="#7d7d7d"/><path d="M360.064,385.263c-22.793-5.854-46.071,7.97-51.917,30.754l16.538,4.233c3.499-13.67,17.476-21.956,31.147-18.449    c9.054,2.313,16.137,9.387,18.449,18.449l16.538-4.233C386.944,400.913,375.168,389.129,360.064,385.263z" fill="#7d7d7d"/><path d="M170.846,315.921c-29.534-2.406-58.24,6.81-80.828,25.984c-22.596,19.174-36.369,46.003-38.784,75.529l17.007,1.399    c2.039-24.994,13.696-47.693,32.811-63.906c19.123-16.222,43.409-24.047,68.403-21.982c13.867,1.126,27.554,5.436,39.586,12.442    l8.593-14.754C203.409,322.347,187.23,317.261,170.846,315.921z" fill="#7d7d7d"/><path d="M171.529,350.259c-41.975-5.188-80.444,24.798-85.615,66.833l16.939,2.082c4.019-32.691,33.886-55.927,66.586-51.985    c27.247,3.362,48.623,24.738,51.977,51.985l16.956-2.082C234.052,382.054,206.566,354.569,171.529,350.259z" fill="#7d7d7d"/><path d="M172.919,385.476c-11.017-2.884-22.519-1.289-32.35,4.454c-9.839,5.76-16.845,15.01-19.721,26.035l16.512,4.318    c1.732-6.613,5.939-12.169,11.836-15.616c5.897-3.456,12.8-4.403,19.413-2.671c8.943,2.338,15.957,9.344,18.295,18.295    l16.504-4.326C199.509,401.05,187.827,389.367,172.919,385.476z" fill="#7d7d7d"/><path d="M256,384c-18.825,0-34.133,15.309-34.133,34.133h17.067c0-9.412,7.654-17.067,17.067-17.067    c9.412,0,17.067,7.654,17.067,17.067h17.067C290.133,399.309,274.825,384,256,384z" fill="#7d7d7d"/><rect x="85px" y="34px" width="68px" height="17px" fill="#7d7d7d"/><rect x="102px" y="68px" width="51px" height="17px" fill="#7d7d7d"/><path d="M66.543,183.501c-9.045-15.812-9.045-35.447,0-51.26c12.032-21.035,12.032-47.172,0-68.207    c-9.045-15.812-9.045-35.447,0-51.26c1.51-2.645,1.502-5.888-0.026-8.525C64.99,1.621,62.174,0,59.136,0H34.133v17.067H46.08    c-5.922,18.236-4.045,38.494,5.649,55.433c9.045,15.812,9.045,35.447,0,51.26c-12.032,21.035-12.032,47.172,0,68.207    c9.045,15.812,9.045,35.447,0,51.26c-12.032,21.043-12.032,47.172-0.35,67.524c2.611,5.7,4.821,11.614,6.571,17.553l16.367-4.821    c-1.98-6.724-4.48-13.389-7.774-20.514c-9.045-15.804-9.045-35.456,0-51.26C78.575,230.673,78.575,204.535,66.543,183.501z" fill="#7d7d7d"/><path d="M511.983,62.208c-0.7-24.969-21.572-44.527-46.566-44.032l-248.653,7.313L203.75,12.476    C195.695,4.429,184.986,0,173.611,0c-0.017,0-0.034,0-0.043,0H94.464c-3.063,0-5.888,1.638-7.407,4.292    c-12.032,21.035-12.032,47.172,0,68.207c9.045,15.812,9.045,35.448,0,51.26c-12.032,21.035-12.032,47.172,0,68.207    c9.045,15.812,9.045,35.447,0,51.26c-12.032,21.043-12.032,47.172,0,68.207c1.169,2.048,2.193,4.173,3.072,6.366l15.838-6.349    c-1.161-2.91-2.543-5.768-4.096-8.482c-9.045-15.804-9.045-35.456,0-51.26c12.032-21.035,12.032-47.172,0-68.207    c-9.045-15.812-9.045-35.447,0-51.26c2.338-4.096,4.224-8.371,5.649-12.774h66.039c0.017,0,0.026,0,0.043,0    c11.383,0,22.093-4.437,30.148-12.484l12.911-12.911l247.381,14.541c0.887,0.051,2.125,0.034,2.645,0.077    c24.969,0,45.295-20.309,45.312-45.286L511.983,62.208z M466.68,91.622c-0.657-0.145-1.075-0.017-1.621-0.043L213.837,76.817    c-2.432-0.179-4.813,0.759-6.537,2.483l-15.616,15.616c-4.83,4.821-11.247,7.484-18.091,7.484c-0.009,0-0.017,0-0.026,0h-62.805    c0.811-13.193-2.15-26.581-8.892-38.374c-8.235-14.404-8.969-31.991-2.193-46.959h73.899c0.009,0,0.017,0,0.026,0    c6.827,0,13.252,2.662,18.082,7.492L207.3,40.175c1.655,1.655,3.977,2.628,6.281,2.492l252.322-7.433    c15.932-0.435,28.578,11.887,29.03,28.16C494.916,78.967,482.244,91.622,466.68,91.622z" fill="#7d7d7d"/><path d="M135.996,183.501c-9.045-15.812-9.045-35.447-0.009-51.251c3.413-5.939,5.905-12.331,7.415-19.004l-16.648-3.763    c-1.135,5.009-3.004,9.813-5.572,14.285c-12.032,21.035-12.032,47.172,0,68.207c9.045,15.812,9.045,35.456-0.009,51.277    c-11.136,19.558-12.006,43.375-2.33,63.693l15.403-7.33c-7.287-15.292-6.622-33.203,1.749-47.906    C148.028,230.673,148.028,204.536,135.996,183.501z" fill="#7d7d7d"/><rect x="34px" y="34px" width="17px" height="17px" fill="#7d7d7d"/><rect x="34px" y="68px" width="25px" height="17px" fill="#7d7d7d"/><rect x="34px" y="102px" width="34px" height="17px" fill="#7d7d7d"/></g></defs><g fi:class="KUsePattern"><pattern id="pattern_L1_0" width="350" height="350" patternUnits="userSpaceOnUse"><use xlink:href="#L1_0" x="-350" y="-350"/><use xlink:href="#L1_0" x="0" y="-350"/><use xlink:href="#L1_0" x="350" y="-350"/><use xlink:href="#L1_0" x="-350" y="0"/><use xlink:href="#L1_0" x="0" y="0"/><use xlink:href="#L1_0" x="350" y="0"/><use xlink:href="#L1_0" x="-350" y="350"/><use xlink:href="#L1_0" x="0" y="350"/><use xlink:href="#L1_0" x="350" y="350"/></pattern><rect x="0" y="0" width="100%" height="100%" fill="url(#pattern_L1_0)"/></g><g fi:class="KUsePattern"><pattern id="pattern_L1_3" width="350" height="350" patternUnits="userSpaceOnUse"><use xlink:href="#L1_3" x="-350" y="-350"/><use xlink:href="#L1_3" x="0" y="-350"/><use xlink:href="#L1_3" x="350" y="-350"/><use xlink:href="#L1_3" x="-350" y="0"/><use xlink:href="#L1_3" x="0" y="0"/><use xlink:href="#L1_3" x="350" y="0"/><use xlink:href="#L1_3" x="-350" y="350"/><use xlink:href="#L1_3" x="0" y="350"/><use xlink:href="#L1_3" x="350" y="350"/></pattern><rect x="0" y="0" width="100%" height="100%" fill="url(#pattern_L1_3)"/></g><g fi:class="KUsePattern"><pattern id="pattern_L1_5" width="350" height="350" patternUnits="userSpaceOnUse"><use xlink:href="#L1_5" x="-350" y="-350"/><use xlink:href="#L1_5" x="0" y="-350"/><use xlink:href="#L1_5" x="350" y="-350"/><use xlink:href="#L1_5" x="-350" y="0"/><use xlink:href="#L1_5" x="0" y="0"/><use xlink:href="#L1_5" x="350" y="0"/><use xlink:href="#L1_5" x="-350" y="350"/><use xlink:href="#L1_5" x="0" y="350"/><use xlink:href="#L1_5" x="350" y="350"/></pattern><rect x="0" y="0" width="100%" height="100%" fill="url(#pattern_L1_5)"/></g><g fi:class="KUsePattern"><pattern id="pattern_L1_6" width="350" height="350" patternUnits="userSpaceOnUse"><use xlink:href="#L1_6" x="-350" y="-350"/><use xlink:href="#L1_6" x="0" y="-350"/><use xlink:href="#L1_6" x="350" y="-350"/><use xlink:href="#L1_6" x="-350" y="0"/><use xlink:href="#L1_6" x="0" y="0"/><use xlink:href="#L1_6" x="350" y="0"/><use xlink:href="#L1_6" x="-350" y="350"/><use xlink:href="#L1_6" x="0" y="350"/><use xlink:href="#L1_6" x="350" y="350"/></pattern><rect x="0" y="0" width="100%" height="100%" fill="url(#pattern_L1_6)"/></g><g fi:class="KUsePattern"><pattern id="pattern_L1_8" width="350" height="350" patternUnits="userSpaceOnUse"><use xlink:href="#L1_8" x="-350" y="-350"/><use xlink:href="#L1_8" x="0" y="-350"/><use xlink:href="#L1_8" x="350" y="-350"/><use xlink:href="#L1_8" x="-350" y="0"/><use xlink:href="#L1_8" x="0" y="0"/><use xlink:href="#L1_8" x="350" y="0"/><use xlink:href="#L1_8" x="-350" y="350"/><use xlink:href="#L1_8" x="0" y="350"/><use xlink:href="#L1_8" x="350" y="350"/></pattern><rect x="0" y="0" width="100%" height="100%" fill="url(#pattern_L1_8)"/></g><g fi:class="KUsePattern"><pattern id="pattern_L1_9" width="350" height="350" patternUnits="userSpaceOnUse"><use xlink:href="#L1_9" x="-350" y="-350"/><use xlink:href="#L1_9" x="0" y="-350"/><use xlink:href="#L1_9" x="350" y="-350"/><use xlink:href="#L1_9" x="-350" y="0"/><use xlink:href="#L1_9" x="0" y="0"/><use xlink:href="#L1_9" x="350" y="0"/><use xlink:href="#L1_9" x="-350" y="350"/><use xlink:href="#L1_9" x="0" y="350"/><use xlink:href="#L1_9" x="350" y="350"/></pattern><rect x="0" y="0" width="100%" height="100%" fill="url(#pattern_L1_9)"/></g><g fi:class="KUsePattern"><pattern id="pattern_L1_11" width="350" height="350" patternUnits="userSpaceOnUse"><use xlink:href="#L1_11" x="-350" y="-350"/><use xlink:href="#L1_11" x="0" y="-350"/><use xlink:href="#L1_11" x="350" y="-350"/><use xlink:href="#L1_11" x="-350" y="0"/><use xlink:href="#L1_11" x="0" y="0"/><use xlink:href="#L1_11" x="350" y="0"/><use xlink:href="#L1_11" x="-350" y="350"/><use xlink:href="#L1_11" x="0" y="350"/><use xlink:href="#L1_11" x="350" y="350"/></pattern><rect x="0" y="0" width="100%" height="100%" fill="url(#pattern_L1_11)"/></g><g fi:class="KUsePattern"><pattern id="pattern_L1_13" width="350" height="350" patternUnits="userSpaceOnUse"><use xlink:href="#L1_13" x="-350" y="-350"/><use xlink:href="#L1_13" x="0" y="-350"/><use xlink:href="#L1_13" x="350" y="-350"/><use xlink:href="#L1_13" x="-350" y="0"/><use xlink:href="#L1_13" x="0" y="0"/><use xlink:href="#L1_13" x="350" y="0"/><use xlink:href="#L1_13" x="-350" y="350"/><use xlink:href="#L1_13" x="0" y="350"/><use xlink:href="#L1_13" x="350" y="350"/></pattern><rect x="0" y="0" width="100%" height="100%" fill="url(#pattern_L1_13)"/></g><g fi:class="KUsePattern"><pattern id="pattern_L1_16" width="350" height="350" patternUnits="userSpaceOnUse"><use xlink:href="#L1_16" x="-350" y="-350"/><use xlink:href="#L1_16" x="0" y="-350"/><use xlink:href="#L1_16" x="350" y="-350"/><use xlink:href="#L1_16" x="-350" y="0"/><use xlink:href="#L1_16" x="0" y="0"/><use xlink:href="#L1_16" x="350" y="0"/><use xlink:href="#L1_16" x="-350" y="350"/><use xlink:href="#L1_16" x="0" y="350"/><use xlink:href="#L1_16" x="350" y="350"/></pattern><rect x="0" y="0" width="100%" height="100%" fill="url(#pattern_L1_16)"/></g><g fi:class="KUsePattern"><pattern id="pattern_L1_18" width="350" height="350" patternUnits="userSpaceOnUse"><use xlink:href="#L1_18" x="-350" y="-350"/><use xlink:href="#L1_18" x="0" y="-350"/><use xlink:href="#L1_18" x="350" y="-350"/><use xlink:href="#L1_18" x="-350" y="0"/><use xlink:href="#L1_18" x="0" y="0"/><use xlink:href="#L1_18" x="350" y="0"/><use xlink:href="#L1_18" x="-350" y="350"/><use xlink:href="#L1_18" x="0" y="350"/><use xlink:href="#L1_18" x="350" y="350"/></pattern><rect x="0" y="0" width="100%" height="100%" fill="url(#pattern_L1_18)"/></g><g fi:class="KUsePattern"><pattern id="pattern_L1_19" width="350" height="350" patternUnits="userSpaceOnUse"><use xlink:href="#L1_19" x="-350" y="-350"/><use xlink:href="#L1_19" x="0" y="-350"/><use xlink:href="#L1_19" x="350" y="-350"/><use xlink:href="#L1_19" x="-350" y="0"/><use xlink:href="#L1_19" x="0" y="0"/><use xlink:href="#L1_19" x="350" y="0"/><use xlink:href="#L1_19" x="-350" y="350"/><use xlink:href="#L1_19" x="0" y="350"/><use xlink:href="#L1_19" x="350" y="350"/></pattern><rect x="0" y="0" width="100%" height="100%" fill="url(#pattern_L1_19)"/></g><g fi:class="KUsePattern"><pattern id="pattern_L1_20" width="350" height="350" patternUnits="userSpaceOnUse"><use xlink:href="#L1_20" x="-350" y="-350"/><use xlink:href="#L1_20" x="0" y="-350"/><use xlink:href="#L1_20" x="350" y="-350"/><use xlink:href="#L1_20" x="-350" y="0"/><use xlink:href="#L1_20" x="0" y="0"/><use xlink:href="#L1_20" x="350" y="0"/><use xlink:href="#L1_20" x="-350" y="350"/><use xlink:href="#L1_20" x="0" y="350"/><use xlink:href="#L1_20" x="350" y="350"/></pattern><rect x="0" y="0" width="100%" height="100%" fill="url(#pattern_L1_20)"/></g><g fi:class="KUsePattern"><pattern id="pattern_L1_23" width="350" height="350" patternUnits="userSpaceOnUse"><use xlink:href="#L1_23" x="-350" y="-350"/><use xlink:href="#L1_23" x="0" y="-350"/><use xlink:href="#L1_23" x="350" y="-350"/><use xlink:href="#L1_23" x="-350" y="0"/><use xlink:href="#L1_23" x="0" y="0"/><use xlink:href="#L1_23" x="350" y="0"/><use xlink:href="#L1_23" x="-350" y="350"/><use xlink:href="#L1_23" x="0" y="350"/><use xlink:href="#L1_23" x="350" y="350"/></pattern><rect x="0" y="0" width="100%" height="100%" fill="url(#pattern_L1_23)"/></g><g fi:class="KUsePattern"><pattern id="pattern_L1_24" width="350" height="350" patternUnits="userSpaceOnUse"><use xlink:href="#L1_24" x="-350" y="-350"/><use xlink:href="#L1_24" x="0" y="-350"/><use xlink:href="#L1_24" x="350" y="-350"/><use xlink:href="#L1_24" x="-350" y="0"/><use xlink:href="#L1_24" x="0" y="0"/><use xlink:href="#L1_24" x="350" y="0"/><use xlink:href="#L1_24" x="-350" y="350"/><use xlink:href="#L1_24" x="0" y="350"/><use xlink:href="#L1_24" x="350" y="350"/></pattern><rect x="0" y="0" width="100%" height="100%" fill="url(#pattern_L1_24)"/></g><g fi:class="KUsePattern"><pattern id="pattern_L1_25" width="350" height="350" patternUnits="userSpaceOnUse"><use xlink:href="#L1_25" x="-350" y="-350"/><use xlink:href="#L1_25" x="0" y="-350"/><use xlink:href="#L1_25" x="350" y="-350"/><use xlink:href="#L1_25" x="-350" y="0"/><use xlink:href="#L1_25" x="0" y="0"/><use xlink:href="#L1_25" x="350" y="0"/><use xlink:href="#L1_25" x="-350" y="350"/><use xlink:href="#L1_25" x="0" y="350"/><use xlink:href="#L1_25" x="350" y="350"/></pattern><rect x="0" y="0" width="100%" height="100%" fill="url(#pattern_L1_25)"/></g><g fi:class="KUsePattern"><pattern id="pattern_L1_26" width="350" height="350" patternUnits="userSpaceOnUse"><use xlink:href="#L1_26" x="-350" y="-350"/><use xlink:href="#L1_26" x="0" y="-350"/><use xlink:href="#L1_26" x="350" y="-350"/><use xlink:href="#L1_26" x="-350" y="0"/><use xlink:href="#L1_26" x="0" y="0"/><use xlink:href="#L1_26" x="350" y="0"/><use xlink:href="#L1_26" x="-350" y="350"/><use xlink:href="#L1_26" x="0" y="350"/><use xlink:href="#L1_26" x="350" y="350"/></pattern><rect x="0" y="0" width="100%" height="100%" fill="url(#pattern_L1_26)"/></g><g fi:class="KUsePattern"><pattern id="pattern_L1_27" width="350" height="350" patternUnits="userSpaceOnUse"><use xlink:href="#L1_27" x="-350" y="-350"/><use xlink:href="#L1_27" x="0" y="-350"/><use xlink:href="#L1_27" x="350" y="-350"/><use xlink:href="#L1_27" x="-350" y="0"/><use xlink:href="#L1_27" x="0" y="0"/><use xlink:href="#L1_27" x="350" y="0"/><use xlink:href="#L1_27" x="-350" y="350"/><use xlink:href="#L1_27" x="0" y="350"/><use xlink:href="#L1_27" x="350" y="350"/></pattern><rect x="0" y="0" width="100%" height="100%" fill="url(#pattern_L1_27)"/></g></svg>